<svg width="194" height="116" viewBox="0 0 194 116" fill="none" xmlns="http://www.w3.org/2000/svg">
<path d="M54.7706 42.2524C54.7706 44.6213 55.0269 46.5414 55.4748 47.9498C55.9874 49.3582 56.6273 50.8943 57.5235 52.559C57.8437 53.0712 57.9714 53.5829 57.9714 54.0312C57.9714 54.6711 57.5873 55.3114 56.755 55.9513L52.7223 58.6404C52.1463 59.0244 51.5703 59.2164 51.0581 59.2164C50.4177 59.2164 49.7779 58.8962 49.138 58.3202C48.2752 57.3933 47.5033 56.3857 46.8329 55.3114C46.1931 54.2232 45.5527 53.0068 44.8485 51.5346C39.8553 57.424 33.5824 60.3685 26.0288 60.3685C20.6516 60.3685 16.3626 58.8324 13.2256 55.7593C10.0892 52.6867 8.48877 48.5902 8.48877 43.4688C8.48877 38.0278 10.4088 33.6106 14.3143 30.2821C18.2188 26.9532 23.404 25.2889 29.9976 25.2889C32.174 25.2889 34.4143 25.4809 36.7832 25.8011C39.1516 26.1213 41.5839 26.6335 44.1443 27.2095V22.5365C44.1443 17.671 43.1204 14.2782 41.136 12.2943C39.0873 10.3099 35.6307 9.34932 30.7013 9.34932C28.461 9.34932 26.1565 9.60567 23.788 10.1817C21.4196 10.7577 19.115 11.4619 16.8748 12.3581C15.8504 12.8065 15.0824 13.0623 14.634 13.1905C14.1862 13.3181 13.866 13.3825 13.6096 13.3825C12.7134 13.3825 12.2656 12.7421 12.2656 11.3981V8.26162C12.2656 7.23724 12.3938 6.46871 12.7134 6.02086C13.0336 5.57251 13.6096 5.12466 14.5058 4.67631C16.7466 3.52426 19.4352 2.56423 22.5716 1.7962C25.7081 0.963832 29.0371 0.579818 32.558 0.579818C40.1755 0.579818 45.7447 2.30788 49.3295 5.76452C52.8505 9.22165 54.6424 14.4702 54.6424 21.5121V42.2524H54.7706ZM28.7812 51.9835C30.8938 51.9835 33.0702 51.599 35.3748 50.8309C37.6789 50.0629 39.7276 48.6545 41.4557 46.7344C42.4801 45.5181 43.2481 44.1735 43.6321 42.6374C44.0166 41.1009 44.2725 39.2446 44.2725 37.0682V34.3791C42.4163 33.9318 40.4318 33.5473 38.3831 33.2914C36.3874 33.0379 34.3778 32.9095 32.366 32.9069C28.077 32.9069 24.9401 33.7393 22.828 35.4678C20.7154 37.1959 19.6915 39.6287 19.6915 42.8294C19.6915 45.8377 20.4596 48.0785 22.0595 49.615C23.596 51.2149 25.8363 51.9835 28.7812 51.9835ZM80.1844 58.8967C79.0318 58.8967 78.2643 58.7047 77.7516 58.2564C77.2394 57.8724 76.7916 56.9762 76.4076 55.7603L61.3642 6.27721C60.9801 4.99699 60.7881 4.16513 60.7881 3.71677C60.7881 2.6924 61.3003 2.11638 62.3242 2.11638H68.5976C69.814 2.11638 70.6463 2.30839 71.0942 2.75674C71.6069 3.14075 71.9904 4.03695 72.3744 5.25333L83.1288 47.6306L93.1152 5.25333C93.4349 3.97262 93.8189 3.14075 94.3316 2.75674C94.8433 2.37272 95.7395 2.11638 96.892 2.11638H102.013C103.229 2.11638 104.062 2.30839 104.573 2.75674C105.086 3.14075 105.533 4.03695 105.79 5.25333L115.904 48.1423L126.978 5.25333C127.362 3.97262 127.811 3.14075 128.259 2.75674C128.771 2.37272 129.603 2.11638 130.755 2.11638H136.708C137.733 2.11638 138.309 2.62857 138.309 3.71677C138.309 4.03695 138.245 4.35713 138.181 4.74115C138.117 5.12516 137.989 5.63735 137.733 6.34154L122.305 55.8241C121.921 57.1043 121.473 57.9367 120.961 58.3207C120.449 58.7047 119.617 58.9606 118.529 58.9606H113.023C111.807 58.9606 110.975 58.7686 110.463 58.3207C109.951 57.8724 109.503 57.0405 109.246 55.7603L99.3243 14.4712L89.4661 55.6959C89.1464 56.9762 88.7624 57.8085 88.2497 58.2564C87.738 58.7047 86.8418 58.8967 85.6893 58.8967H80.1844ZM162.442 60.6253C159.113 60.6253 155.784 60.2408 152.584 59.4728C149.383 58.7047 146.887 57.8724 145.223 56.9123C144.198 56.3363 143.494 55.6959 143.238 55.1199C142.989 54.555 142.858 53.945 142.854 53.3275V50.0629C142.854 48.7183 143.366 48.0785 144.326 48.0785C144.71 48.0785 145.094 48.1423 145.478 48.2705C145.862 48.3987 146.438 48.6545 147.079 48.9104C149.34 49.9049 151.701 50.6561 154.121 51.1511C156.681 51.6633 159.177 51.9191 161.738 51.9191C165.771 51.9191 168.907 51.2154 171.084 49.8065C173.26 48.3987 174.413 46.3499 174.413 43.7257C174.413 41.9332 173.837 40.4605 172.684 39.2446C171.532 38.0283 169.356 36.9401 166.219 35.9157L156.937 33.0356C152.264 31.5628 148.807 29.3864 146.695 26.5058C144.582 23.689 143.494 20.5526 143.494 17.2236C143.494 14.535 144.07 12.1666 145.223 10.1184C146.375 8.06961 147.911 6.27721 149.832 4.86882C151.752 3.39659 153.928 2.30839 156.489 1.54036C159.049 0.772328 161.738 0.452148 164.554 0.452148C165.963 0.452148 167.435 0.515983 168.843 0.708493C170.316 0.899997 171.66 1.15584 173.004 1.41218C174.285 1.73236 175.501 2.05254 176.653 2.43656C177.805 2.82057 178.702 3.20459 179.342 3.5886C180.238 4.10129 180.878 4.61297 181.262 5.189C181.646 5.70169 181.838 6.40538 181.838 7.30158V10.3104C181.838 11.6544 181.326 12.3586 180.366 12.3586C179.854 12.3586 179.022 12.1023 177.933 11.5906C174.285 9.92635 170.188 9.09398 165.643 9.09398C161.994 9.09398 159.113 9.67 157.129 10.8864C155.145 12.1028 154.12 13.959 154.12 16.5838C154.12 18.3762 154.761 19.9122 156.04 21.1286C157.321 22.345 159.689 23.5614 163.082 24.6491L172.172 27.5297C176.781 29.0024 180.11 31.0507 182.094 33.6754C184.079 36.2997 185.039 39.3085 185.039 42.6374C185.039 45.3899 184.463 47.8865 183.375 50.0629C182.222 52.2393 180.686 54.1594 178.702 55.6959C176.717 57.2963 174.349 58.4484 171.596 59.2807C168.716 60.1769 165.707 60.6253 162.442 60.6253Z" fill="#252F3E"/>
<path fill-rule="evenodd" clip-rule="evenodd" d="M174.541 91.7356C153.48 107.291 122.881 115.548 96.5718 115.548C59.6999 115.548 26.4766 101.913 1.38294 79.2531C-0.601475 77.4602 1.19093 75.0279 3.55935 76.4363C30.7017 92.1839 64.1809 101.721 98.812 101.721C122.177 101.721 147.847 96.8564 171.468 86.8705C174.989 85.2701 177.997 89.1746 174.541 91.7356Z" fill="#FF9900"/>
<path fill-rule="evenodd" clip-rule="evenodd" d="M183.31 81.7496C180.622 78.2924 165.514 80.0848 158.665 80.9167C156.617 81.173 156.297 79.3806 158.153 78.0366C170.188 69.5862 189.968 72.019 192.272 74.8358C194.577 77.7159 191.632 97.4967 180.366 106.97C178.637 108.443 176.973 107.675 177.741 105.754C180.302 99.4167 185.999 85.1418 183.31 81.749V81.7496Z" fill="#FF9900"/>
</svg>
