<svg width="118" height="117" viewBox="0 0 118 117" fill="none" xmlns="http://www.w3.org/2000/svg">
<path d="M117.295 0H0.294922V117H117.295V0Z" fill="white"/>
<path fill-rule="evenodd" clip-rule="evenodd" d="M110.004 6.63184H7.6357L6.97754 7.23937V109.608L7.99009 110.418H109.751L110.612 109.456V7.18874L110.004 6.63184ZM107.22 106.722H10.1671V9.66948H107.22V106.722Z" fill="#010101"/>
<path fill-rule="evenodd" clip-rule="evenodd" d="M98.512 11.2393C94.4112 11.2393 91.0698 14.5807 91.0698 18.6815C91.0698 22.7823 94.4112 26.1237 98.512 26.1237C102.613 26.1237 105.954 22.7823 105.954 18.6815C105.954 14.5807 102.613 11.2393 98.512 11.2393ZM98.5627 24.7568C95.2213 24.7568 92.538 22.0735 92.538 18.7321C92.538 15.3907 95.2213 12.7075 98.5627 12.7075C101.904 12.7075 104.587 15.3907 104.587 18.7321C104.587 22.0735 101.904 24.7568 98.5627 24.7568Z" fill="#010101"/>
<path fill-rule="evenodd" clip-rule="evenodd" d="M87.0198 27.5918C83.6278 27.5918 80.8433 30.3763 80.8433 33.7683C80.8433 37.1604 83.6278 39.9449 87.0198 39.9449C90.4118 39.9449 93.1964 37.1604 93.1964 33.7683C93.1964 30.3763 90.4118 27.5918 87.0198 27.5918ZM87.0704 38.5273C84.4378 38.5273 82.3115 36.401 82.3115 33.7683C82.3115 31.1357 84.4378 29.0094 87.0704 29.0094C89.7031 29.0094 91.8294 31.1357 91.8294 33.7683C91.8294 36.401 89.6524 38.5273 87.0704 38.5273Z" fill="#010101"/>
<path fill-rule="evenodd" clip-rule="evenodd" d="M99.0688 36.958C96.6893 36.958 94.7148 38.9325 94.7148 41.312C94.7148 43.6915 96.6893 45.6659 99.0688 45.6659C101.448 45.6659 103.423 43.6915 103.423 41.312C103.423 38.9325 101.448 36.958 99.0688 36.958ZM99.0688 44.299C97.4487 44.299 96.1324 42.9827 96.1324 41.3626C96.1324 39.7425 97.4487 38.4262 99.0688 38.4262C100.689 38.4262 102.005 39.7425 102.005 41.3626C102.056 42.9827 100.74 44.299 99.0688 44.299Z" fill="#010101"/>
<path fill-rule="evenodd" clip-rule="evenodd" d="M93.1457 50.4248C92.1331 50.4248 91.2725 51.2348 91.2725 52.298C91.2725 53.3106 92.0825 54.1712 93.1457 54.1712C94.1582 54.1712 95.0189 53.3612 95.0189 52.298C95.0189 51.2348 94.1582 50.4248 93.1457 50.4248ZM93.1963 53.1587C92.7407 53.1587 92.3863 52.8043 92.3863 52.3486C92.3863 51.893 92.7407 51.5386 93.1963 51.5386C93.6519 51.5386 94.0063 51.893 94.0063 52.3486C94.0063 52.7537 93.6519 53.1587 93.1963 53.1587Z" fill="#010101"/>
<path fill-rule="evenodd" clip-rule="evenodd" d="M85.5521 63.3352C83.7801 63.3352 71.7814 63.3352 71.7814 63.3352C71.7814 63.3352 70.1613 63.1326 70.1613 64.6008V79.1309C70.1613 79.1309 70.212 80.3966 68.5919 80.3966C66.9718 80.3966 48.9991 80.3966 48.9991 80.3966C48.9991 80.3966 47.6321 80.2953 47.6321 79.1309V58.9306C47.6321 58.9306 47.6321 38.7808 47.6321 37.667C47.6321 36.5532 48.9991 36.4014 48.9991 36.4014C48.9991 36.4014 66.9718 36.4014 68.5919 36.4014C70.212 36.4014 70.1613 37.667 70.1613 37.667V52.1971C70.1613 53.6147 71.7814 53.4628 71.7814 53.4628C71.7814 53.4628 83.7801 53.4628 85.5521 53.4628C87.324 53.4628 87.2228 52.0959 87.2228 52.0959C87.2228 52.0959 87.2228 25.8202 87.2228 24.757C87.2228 23.6939 85.8558 23.542 85.8558 23.542C85.8558 23.542 33.2033 23.542 31.9376 23.542C30.6719 23.542 30.3682 24.8077 30.3682 24.8077V92.0915C30.3682 92.0915 30.6719 93.3572 31.9376 93.3572C33.2033 93.3572 85.8558 93.3572 85.8558 93.3572C85.8558 93.3572 87.2228 93.2053 87.2228 92.1422C87.2228 91.079 87.2228 64.8033 87.2228 64.8033C87.2228 64.8033 87.3747 63.3352 85.5521 63.3352Z" fill="#010101"/>
<path fill-rule="evenodd" clip-rule="evenodd" d="M19.1283 21.6173V17.4152C19.1283 17.4152 19.0777 17.0608 18.6726 16.757C18.2676 16.4533 18.0651 16.5039 18.0651 16.5039H15.1287C15.1287 16.5039 14.6731 16.4533 14.6731 16.0482C14.6731 15.6432 14.6731 14.4282 14.6731 14.4282C14.6731 14.4282 14.6224 14.0738 15.1793 14.0738C15.7363 14.0738 18.6726 14.0738 18.6726 14.0738C18.6726 14.0738 19.1283 14.1244 19.1283 13.7194C19.1283 13.3144 19.1283 12.4031 19.1283 12.4031C19.1283 12.4031 18.9764 11.998 18.5714 11.998C18.1664 11.998 13.863 11.998 13.863 11.998C13.863 11.998 13.2555 12.0487 12.7492 12.4537C12.2936 12.8587 12.3948 13.3144 12.3948 13.3144V21.516C12.3948 21.516 12.2936 22.1235 12.9517 22.6298C13.6099 23.1361 14.2174 22.9842 14.2174 22.9842H17.812C17.812 22.9842 18.5714 23.1361 18.9764 22.5286C19.3308 21.921 19.1283 21.6173 19.1283 21.6173ZM16.9007 20.6553C16.9007 20.8072 16.7994 20.9085 16.6475 20.9085H14.825C14.6731 20.9085 14.5718 20.8072 14.5718 20.6553V18.6809C14.5718 18.529 14.6731 18.4277 14.825 18.4277H16.6475C16.7994 18.4277 16.9007 18.529 16.9007 18.6809V20.6553Z" fill="#010101"/>
</svg>
