<svg width="163" height="31" viewBox="0 0 163 31" fill="none" xmlns="http://www.w3.org/2000/svg">
<path fill-rule="evenodd" clip-rule="evenodd" d="M142.104 4.14683C142.104 2.36755 140.655 0.919311 138.876 0.919311H138.793C138.338 0.919311 137.966 1.29172 137.966 1.74688V4.14683C137.966 4.64337 138.38 5.09853 138.918 5.09853H141.235C141.69 5.05715 142.104 4.64337 142.104 4.14683ZM124.601 9.69154C124.063 8.16054 122.656 7.12608 121.042 7.12608H119.759C119.511 7.12608 119.346 7.29159 119.346 7.53986C119.346 7.58124 119.346 7.62262 119.387 7.70537L125.221 23.2637C125.345 23.6361 125.718 23.8843 126.09 23.8843H128.987C129.359 23.8843 129.732 23.6361 129.856 23.2637L135.649 7.70537C135.731 7.49848 135.607 7.25021 135.4 7.16745C135.359 7.16745 135.318 7.12608 135.276 7.12608H131.966C131.552 7.12608 131.18 7.37435 131.056 7.78813L127.497 18.2155L124.601 9.69154ZM158.821 12.257C158.821 11.7191 158.407 11.3053 157.869 11.3053H151.414C150.876 11.3053 150.462 11.7191 150.462 12.257V18.7534C150.462 19.2913 150.876 19.7051 151.414 19.7051H157.91C158.407 19.7051 158.862 19.2913 158.862 18.7948V12.257H158.821ZM163 4.64337V21.9809C163 23.0154 162.172 23.843 161.138 23.843H150.048C147.979 23.843 146.283 22.1465 146.283 20.0775V10.8915C146.283 8.82259 147.979 7.12608 150.048 7.12608H158.821V1.29171C158.821 1.04344 159.028 0.87793 159.234 0.87793C161.303 0.87793 163 2.57445 163 4.64337ZM83.636 12.5053C83.636 13.0018 84.0498 13.457 84.5877 13.457H91.0841C91.622 13.457 92.0358 13.0432 92.0358 12.5053V12.2984C92.0358 11.7605 91.622 11.3467 91.0841 11.3467H84.5877C84.0498 11.3467 83.636 11.7605 83.636 12.2984V12.5053ZM92.4082 17.5948H83.636V17.8017C83.636 18.8362 84.4636 19.6637 85.498 19.6637H95.7185C95.9668 19.6637 96.1323 19.8706 96.1323 20.0775C96.1323 22.1465 94.4358 23.843 92.3669 23.843H83.1808C81.1119 23.843 79.4154 22.1878 79.4154 20.1189V10.9329C79.4154 8.86397 81.1119 7.16745 83.1808 7.16745H92.3669C94.4358 7.16745 96.1323 8.86397 96.1323 10.9329V13.8708C96.1737 15.9397 94.4772 17.5948 92.4082 17.5948ZM113.263 7.16745H102.215C101.18 7.16745 100.353 7.99502 100.353 9.02948V20.1189C100.353 22.1878 102.049 23.8843 104.118 23.8843C104.367 23.8843 104.532 23.6775 104.532 23.4706V12.2984C104.532 11.7605 104.946 11.3467 105.484 11.3467H111.98C112.518 11.3467 112.932 11.7605 112.932 12.2984V20.1189C112.932 22.1878 114.628 23.8843 116.697 23.8843C116.946 23.8843 117.111 23.7188 117.111 23.4706V10.9329C117.07 8.82259 115.373 7.16745 113.263 7.16745ZM71.0983 18.7534V12.257C71.0983 11.7191 70.6846 11.3053 70.1466 11.3053H63.6916C63.1537 11.3053 62.7399 11.7191 62.7399 12.257V18.7534C62.7399 19.25 63.1537 19.7051 63.6502 19.7051H70.1466C70.6846 19.7051 71.0983 19.25 71.0983 18.7534ZM75.2776 9.02948V26.3671C75.2776 28.436 73.581 30.1325 71.5121 30.1325H60.8779C60.7537 30.1325 60.671 30.0497 60.671 29.9256C60.671 27.7325 62.4502 25.9533 64.6433 25.9533H71.1397V23.843H62.3675C60.2986 23.843 58.6021 22.1878 58.6021 20.0775V10.8915C58.6021 8.82259 60.2986 7.12608 62.3675 7.12608H73.4155C74.4086 7.16745 75.2776 7.99502 75.2776 9.02948ZM141.193 23.843H138.876C138.38 23.843 137.925 23.4292 137.925 22.8913V8.0364C137.925 7.53986 138.338 7.0847 138.876 7.0847H141.193C141.69 7.0847 142.145 7.49848 142.145 8.0364V22.8913C142.104 23.4292 141.69 23.843 141.193 23.843Z" fill="#010101"/>
<path d="M29.6787 15.5255H25.9132L24.0098 13.6221H12.7135L16.479 9.85665L14.5756 7.95325L10.8101 11.7187L7.04468 15.4841L10.8101 19.2496L14.5756 23.015L16.479 21.1116L12.7135 17.3461H20.2444L23.1823 20.284C23.6374 20.7392 23.6374 21.484 23.1823 21.9392L22.1064 23.015L18.341 26.7804L15.4031 29.7183C14.948 30.1735 14.2031 30.1735 13.748 29.7183L10.8101 26.7804L7.04468 23.0564L3.27924 19.2909L0.341372 16.3531C-0.113791 15.8979 -0.113791 15.1531 0.341372 14.6979L3.27924 11.7601L7.04468 7.99462L10.8101 4.22919L13.748 1.29132C14.2031 0.836152 14.948 0.836152 15.4031 1.29132L18.341 4.22919L25.8719 11.7601L27.7753 13.6635L29.6787 15.5255ZM27.8167 17.3875L25.9132 15.4841H22.1478L24.0512 17.3875L25.9546 19.2909M25.9132 19.2909L33.4855 26.8218L36.4234 29.7597C36.8785 30.2148 37.6233 30.2148 38.0785 29.7597L41.0164 26.8218L44.7818 23.0564L48.5472 19.2909L51.4851 16.3531C51.9403 15.8979 51.9403 15.1531 51.4851 14.6979L48.5472 11.7601L44.8232 7.99462L41.0164 4.22919L38.0785 1.20856C37.6233 0.753397 36.8785 0.753397 36.4234 1.20856L33.4855 4.14643L29.7201 7.91187L28.6442 8.98771C28.1891 9.44287 28.1891 10.1877 28.6442 10.6428L31.5821 13.5807H39.1543L35.3889 9.81528L37.2923 7.91187L41.0578 11.6773L44.8232 15.4427L41.0578 19.2082L37.2923 22.9736L35.3889 21.0702L39.1543 17.3048H27.8167" fill="#F26B3F"/>
</svg>
