<svg width="154" height="158" viewBox="0 0 154 158" fill="none" xmlns="http://www.w3.org/2000/svg">
<path d="M65.938 90.6938C65.938 90.6938 66.1935 90.5021 66.0657 90.1188C48.0487 50.9541 23.451 21.2451 23.451 21.2451C23.451 21.2451 10.034 33.8954 10.9924 46.6095C11.5035 56.1931 18.7231 61.8793 18.7231 61.8793C30.415 73.1879 58.6545 87.4993 65.2352 90.7577C65.4268 90.8216 65.7463 90.9494 65.938 90.6938Z" fill="url(#paint0_radial_560_3872)"/>
<path d="M61.5933 100.404C61.4655 99.957 61.0183 99.957 61.0183 99.957L13.9312 101.618C19.0424 110.691 27.6037 117.719 36.6122 115.546C42.8095 114.013 56.8015 104.302 61.4016 100.979C61.7211 100.66 61.5933 100.404 61.5933 100.404Z" fill="url(#paint1_radial_560_3872)"/>
<path d="M62.296 96.188C62.5516 95.8046 62.1044 95.4852 62.1044 95.4852C41.4039 81.5571 1.34475 60.2178 1.34475 60.2178C-2.29699 71.4625 2.62256 80.471 2.62256 80.471C7.73378 91.2045 17.509 94.4629 17.509 94.4629C21.9813 96.3158 26.5175 96.4435 26.5175 96.4435C27.2203 96.5713 54.5014 96.4435 61.8488 96.4435C62.1044 96.5074 62.296 96.188 62.296 96.188Z" fill="url(#paint2_radial_560_3872)"/>
<path d="M65.4268 1.05469C63.3823 1.24636 57.8239 2.46027 57.8239 2.46027C45.3653 5.65478 42.4263 16.9634 42.4263 16.9634C40.1263 24.0552 42.4902 31.8498 42.4902 31.8498C46.6431 50.2502 67.1519 80.4703 71.4964 86.7954C71.8159 87.1148 72.0714 86.9871 72.0714 86.9871C72.5186 86.8593 72.5187 86.412 72.5187 86.412C79.291 18.8801 65.4268 1.05469 65.4268 1.05469Z" fill="url(#paint3_radial_560_3872)"/>
<path d="M81.0159 86.9236C81.4632 87.1152 81.7187 86.668 81.7187 86.668C86.2549 80.1512 106.572 50.1228 110.725 31.7863C110.725 31.7863 112.961 22.9056 110.789 16.8999C110.789 16.8999 107.722 5.46353 95.1996 2.46069C95.1996 2.46069 91.6217 1.56622 87.7883 0.991211C87.7883 0.991211 73.8602 18.8805 80.6326 86.3486C80.6965 86.8597 81.0159 86.9236 81.0159 86.9236Z" fill="url(#paint4_radial_560_3872)"/>
<path d="M92.1326 99.957C92.1326 99.957 91.7492 100.021 91.6214 100.34C91.6214 100.34 91.4937 100.788 91.8131 100.979C96.3493 104.174 109.958 113.693 116.539 115.546C116.539 115.546 128.678 119.699 139.284 101.618L92.1326 99.957Z" fill="url(#paint5_radial_560_3872)"/>
<path d="M151.806 60.1543C151.806 60.1543 111.811 81.5575 91.1107 95.4217C91.1107 95.4217 90.7274 95.6773 90.8552 96.1245C90.8552 96.1245 91.0469 96.5078 91.3663 96.5078C98.7776 96.5078 126.825 96.5717 127.528 96.4439C127.528 96.4439 131.17 96.3162 135.642 94.5911C135.642 94.5911 145.609 91.4605 150.784 80.1519C150.784 80.088 155.384 70.8879 151.806 60.1543Z" fill="url(#paint6_radial_560_3872)"/>
<path d="M87.3411 90.6934C87.3411 90.6934 87.6606 90.949 87.98 90.7573C94.7524 87.435 122.8 73.1875 134.428 61.9428C134.428 61.9428 141.776 56.0649 142.159 46.6091C142.99 33.4477 129.764 21.3086 129.764 21.3086C129.764 21.3086 105.23 50.8898 87.2133 89.9906C87.2133 89.9267 86.9578 90.3739 87.3411 90.6934Z" fill="url(#paint7_radial_560_3872)"/>
<path d="M17.2536 141.356H5.49779V131.006H0.258789V156.69H5.49779V146.276H17.2536V156.69H22.4926V131.006H17.2536V141.356Z" fill="#231815"/>
<path d="M46.7072 145.7C46.7072 149.917 44.5988 152.089 40.8293 152.089C37.0598 152.089 34.9514 149.789 34.9514 145.509V130.942H29.7124V145.637C29.7124 152.856 33.7375 157.009 40.7654 157.009C47.8572 157.009 51.8823 152.792 51.8823 145.381V130.878H46.6433V145.7H46.7072Z" fill="#231815"/>
<path d="M107.083 148.703L101.205 130.941H96.9244L91.1104 148.703L85.4242 131.005H79.8657L88.8104 156.689H93.1549L99.0328 139.822L104.847 156.689H109.255L118.2 131.005H112.769L107.083 148.703Z" fill="#231815"/>
<path d="M127.528 145.637H137.048V140.973H127.528V135.67H141.328V131.006H122.417V156.69H141.84V152.026H127.528V145.637Z" fill="#231815"/>
<path d="M153.212 131.006H148.037V156.69H153.212V131.006Z" fill="#231815"/>
<path d="M74.0515 151.322L76.3515 156.689H81.8461L70.5375 130.941H65.9374L54.5649 156.689H59.8678L62.2318 151.322H74.0515ZM68.1097 137.458L72.0709 146.658H64.1485L68.1097 137.458Z" fill="#231815"/>
<defs>
<radialGradient id="paint0_radial_560_3872" cx="0" cy="0" r="1" gradientUnits="userSpaceOnUse" gradientTransform="translate(96.5539 15.1315) scale(110.475 110.028)">
<stop stop-color="#F7BFA4"/>
<stop offset="0.0552229" stop-color="#F5A691"/>
<stop offset="0.43" stop-color="#E60012"/>
<stop offset="0.6879" stop-color="#E40011"/>
<stop offset="0.7913" stop-color="#DD0010"/>
<stop offset="0.8671" stop-color="#D1000D"/>
<stop offset="0.9294" stop-color="#BF0008"/>
<stop offset="0.9828" stop-color="#A90002"/>
<stop offset="1" stop-color="#A00000"/>
</radialGradient>
<radialGradient id="paint1_radial_560_3872" cx="0" cy="0" r="1" gradientUnits="userSpaceOnUse" gradientTransform="translate(96.5538 15.1198) scale(110.481 110.035)">
<stop stop-color="#F7BFA4"/>
<stop offset="0.0552229" stop-color="#F5A691"/>
<stop offset="0.43" stop-color="#E60012"/>
<stop offset="0.6879" stop-color="#E40011"/>
<stop offset="0.7913" stop-color="#DD0010"/>
<stop offset="0.8671" stop-color="#D1000D"/>
<stop offset="0.9294" stop-color="#BF0008"/>
<stop offset="0.9828" stop-color="#A90002"/>
<stop offset="1" stop-color="#A00000"/>
</radialGradient>
<radialGradient id="paint2_radial_560_3872" cx="0" cy="0" r="1" gradientUnits="userSpaceOnUse" gradientTransform="translate(96.5512 15.1337) scale(110.467 110.02)">
<stop stop-color="#F7BFA4"/>
<stop offset="0.0552229" stop-color="#F5A691"/>
<stop offset="0.43" stop-color="#E60012"/>
<stop offset="0.6879" stop-color="#E40011"/>
<stop offset="0.7913" stop-color="#DD0010"/>
<stop offset="0.8671" stop-color="#D1000D"/>
<stop offset="0.9294" stop-color="#BF0008"/>
<stop offset="0.9828" stop-color="#A90002"/>
<stop offset="1" stop-color="#A00000"/>
</radialGradient>
<radialGradient id="paint3_radial_560_3872" cx="0" cy="0" r="1" gradientUnits="userSpaceOnUse" gradientTransform="translate(96.5483 15.136) scale(110.469 110.022)">
<stop stop-color="#F7BFA4"/>
<stop offset="0.0552229" stop-color="#F5A691"/>
<stop offset="0.43" stop-color="#E60012"/>
<stop offset="0.6879" stop-color="#E40011"/>
<stop offset="0.7913" stop-color="#DD0010"/>
<stop offset="0.8671" stop-color="#D1000D"/>
<stop offset="0.9294" stop-color="#BF0008"/>
<stop offset="0.9828" stop-color="#A90002"/>
<stop offset="1" stop-color="#A00000"/>
</radialGradient>
<radialGradient id="paint4_radial_560_3872" cx="0" cy="0" r="1" gradientUnits="userSpaceOnUse" gradientTransform="translate(96.5744 15.1373) scale(110.593 110.146)">
<stop stop-color="#F7BFA4"/>
<stop offset="0.0552229" stop-color="#F5A691"/>
<stop offset="0.43" stop-color="#E60012"/>
<stop offset="0.6879" stop-color="#E40011"/>
<stop offset="0.7913" stop-color="#DD0010"/>
<stop offset="0.8671" stop-color="#D1000D"/>
<stop offset="0.9294" stop-color="#BF0008"/>
<stop offset="0.9828" stop-color="#A90002"/>
<stop offset="1" stop-color="#A00000"/>
</radialGradient>
<radialGradient id="paint5_radial_560_3872" cx="0" cy="0" r="1" gradientUnits="userSpaceOnUse" gradientTransform="translate(96.5736 15.1401) scale(110.583 110.136)">
<stop stop-color="#F7BFA4"/>
<stop offset="0.0552229" stop-color="#F5A691"/>
<stop offset="0.43" stop-color="#E60012"/>
<stop offset="0.6879" stop-color="#E40011"/>
<stop offset="0.7913" stop-color="#DD0010"/>
<stop offset="0.8671" stop-color="#D1000D"/>
<stop offset="0.9294" stop-color="#BF0008"/>
<stop offset="0.9828" stop-color="#A90002"/>
<stop offset="1" stop-color="#A00000"/>
</radialGradient>
<radialGradient id="paint6_radial_560_3872" cx="0" cy="0" r="1" gradientUnits="userSpaceOnUse" gradientTransform="translate(96.5741 15.1441) scale(110.579 110.132)">
<stop stop-color="#F7BFA4"/>
<stop offset="0.0552229" stop-color="#F5A691"/>
<stop offset="0.43" stop-color="#E60012"/>
<stop offset="0.6879" stop-color="#E40011"/>
<stop offset="0.7913" stop-color="#DD0010"/>
<stop offset="0.8671" stop-color="#D1000D"/>
<stop offset="0.9294" stop-color="#BF0008"/>
<stop offset="0.9828" stop-color="#A90002"/>
<stop offset="1" stop-color="#A00000"/>
</radialGradient>
<radialGradient id="paint7_radial_560_3872" cx="0" cy="0" r="1" gradientUnits="userSpaceOnUse" gradientTransform="translate(96.574 15.1414) scale(110.583 110.136)">
<stop stop-color="#F7BFA4"/>
<stop offset="0.0552229" stop-color="#F5A691"/>
<stop offset="0.43" stop-color="#E60012"/>
<stop offset="0.6879" stop-color="#E40011"/>
<stop offset="0.7913" stop-color="#DD0010"/>
<stop offset="0.8671" stop-color="#D1000D"/>
<stop offset="0.9294" stop-color="#BF0008"/>
<stop offset="0.9828" stop-color="#A90002"/>
<stop offset="1" stop-color="#A00000"/>
</radialGradient>
</defs>
</svg>
