<svg width="177" height="72" viewBox="0 0 177 72" fill="none" xmlns="http://www.w3.org/2000/svg">
<path d="M172.431 21.1169H173.193C173.559 21.1169 173.806 21.0629 173.938 20.9548C174.07 20.8467 174.136 20.7026 174.136 20.5225C174.136 20.4084 174.106 20.3063 174.04 20.2103C173.974 20.1202 173.89 20.0481 173.776 20.0061C173.661 19.9581 173.451 19.9401 173.145 19.9401H172.431V21.1169ZM171.8 23.3085V19.4177H173.139C173.595 19.4177 173.926 19.4537 174.136 19.5258C174.34 19.5978 174.502 19.7239 174.622 19.904C174.742 20.0842 174.802 20.2703 174.802 20.4744C174.802 20.7566 174.7 21.0028 174.496 21.219C174.292 21.4291 174.022 21.5492 173.686 21.5732C173.824 21.6333 173.932 21.6993 174.016 21.7774C174.172 21.9335 174.364 22.1917 174.592 22.552L175.067 23.3145H174.304L173.962 22.7021C173.692 22.2217 173.469 21.9155 173.307 21.7954C173.193 21.7053 173.025 21.6633 172.803 21.6633H172.431V23.3145H171.8V23.3085ZM173.385 18.2889C172.881 18.2889 172.383 18.4149 171.902 18.6791C171.422 18.9433 171.044 19.3156 170.773 19.7959C170.503 20.2823 170.365 20.7867 170.365 21.3091C170.365 21.8314 170.497 22.3298 170.767 22.8041C171.032 23.2845 171.404 23.6568 171.884 23.921C172.365 24.1912 172.863 24.3232 173.385 24.3232C173.908 24.3232 174.406 24.1912 174.886 23.921C175.367 23.6568 175.739 23.2845 176.003 22.8041C176.267 22.3238 176.399 21.8254 176.399 21.3091C176.399 20.7867 176.261 20.2823 175.997 19.7959C175.727 19.3156 175.355 18.9433 174.868 18.6791C174.388 18.4209 173.89 18.2889 173.385 18.2889ZM173.385 17.6944C173.992 17.6944 174.586 17.8505 175.163 18.1628C175.745 18.475 176.195 18.9193 176.514 19.5017C176.838 20.0782 177 20.6846 177 21.3151C177 21.9395 176.838 22.5339 176.52 23.1104C176.201 23.6868 175.757 24.1311 175.187 24.4493C174.616 24.7676 174.016 24.9297 173.385 24.9297C172.761 24.9297 172.16 24.7676 171.584 24.4493C171.014 24.1311 170.563 23.6868 170.245 23.1104C169.927 22.5339 169.765 21.9335 169.765 21.3151C169.765 20.6846 169.927 20.0782 170.251 19.5017C170.575 18.9193 171.026 18.475 171.602 18.1628C172.19 17.8445 172.779 17.6944 173.385 17.6944Z" fill="#0A0B0A"/>
<path d="M89.5047 14.1708H92.7231V18.3679H89.5047V14.1708ZM89.6008 27.8848C89.6008 27.2003 89.2105 26.81 88.526 26.81H86.4785V23.9339H89.943C92.0446 23.9339 92.9152 24.8105 92.9152 26.9121V44.5169C92.9152 45.2434 93.3055 45.5857 93.99 45.5857H96.0375V48.4678H92.573C90.4774 48.4678 89.5948 47.5851 89.5948 45.4896L89.6008 27.8848Z" fill="#0A0B0A"/>
<path d="M116.188 35.7381C116.188 28.5688 112.772 26.3712 108.43 26.3712C103.651 26.3712 100.871 29.8358 100.871 35.69C100.871 41.5443 104.041 45.3511 108.875 45.3511C112.772 45.3451 116.188 42.9553 116.188 35.7381ZM108.088 23.345C114.675 23.345 116.236 27.5421 116.236 27.5421H116.332V26.6174C116.332 24.8642 117.113 23.9335 119.112 23.9335H122.529V26.8096H120.529C119.845 26.8096 119.454 27.1518 119.454 27.8843V47.8849C119.454 55.6906 113.696 58.7168 107.65 58.7168C104.87 58.7168 102.042 57.9843 99.646 56.7654L100.913 53.9854C100.913 53.9854 103.939 55.6906 107.548 55.6906C112.327 55.6906 116.134 53.445 116.134 47.981V45.8374C116.134 44.9067 116.182 44.0781 116.182 44.0781H116.08C114.615 46.7621 112.177 48.3232 108.37 48.3232C101.784 48.3232 97.4424 43.0994 97.4424 35.7381C97.4424 28.3767 101.501 23.345 108.088 23.345Z" fill="#0A0B0A"/>
<path d="M142.871 36.1703C142.871 31.1987 140.331 26.3171 135.066 26.3171C130.724 26.3171 127.164 29.9738 127.164 36.1703C127.164 42.2227 130.334 46.0775 134.921 46.0775C139.016 46.0775 142.871 43.1534 142.871 36.1703ZM134.771 23.3449C140.722 23.3449 142.769 27.9263 142.769 27.9263H142.865C142.865 27.9263 142.769 27.0977 142.769 26.0709V18.1151C142.769 17.4306 142.379 17.0404 141.694 17.0404H139.647V14.1583H143.111C145.207 14.1583 146.084 15.0349 146.084 17.1364V44.5164C146.084 45.2429 146.474 45.5851 147.158 45.5851H149.206V48.4672H145.789C143.742 48.4672 142.859 47.5366 142.859 45.7352C142.859 44.8106 142.955 44.1741 142.955 44.1741H142.859C142.859 44.1741 140.86 49.0557 134.423 49.0557C127.836 49.0557 123.735 43.7838 123.735 36.1703C123.747 28.4186 128.335 23.3449 134.771 23.3449Z" fill="#0A0B0A"/>
<path d="M160.236 46.2276C164.92 46.2276 167.748 41.3521 167.748 37.107V35.9841H166.331C162.476 35.9841 154.766 36.0802 154.766 41.5922C154.772 43.8859 156.58 46.2276 160.236 46.2276ZM166.385 33.3482H167.754V33.054C167.754 27.9323 165.898 26.131 161.413 26.131C160.194 26.131 156.634 26.4732 156.634 28.2745V29.8357H153.463V27.494C153.463 24.0775 159.318 23.3509 161.461 23.3509C169.219 23.3509 171.074 27.494 171.074 32.7658V44.5164C171.074 45.2489 171.464 45.5851 172.149 45.5851H174.196V48.4672H170.822C168.726 48.4672 167.898 47.5366 167.898 45.5371C167.898 44.4683 167.946 43.7358 167.946 43.7358H167.85C167.898 43.7358 165.85 49.0557 159.702 49.0557C155.601 49.0557 151.362 46.6659 151.362 41.7844C151.362 33.6364 162.14 33.3482 166.385 33.3482Z" fill="#0A0B0A"/>
<path d="M40.7675 0.0474358L38.8821 13.6774C48.6212 13.155 56.4389 20.018 55.6823 30.3815C54.8958 41.1534 44.8805 50.9705 33.6583 51.5349L33.4121 53.3362C33.4121 53.3362 77.7424 65.0328 77.184 30.6817C77.184 30.6817 80.4203 -0.000602722 43.2473 -0.000602722C42.4367 -0.000602722 41.6141 0.0174141 40.7675 0.0474358Z" fill="#F6D70B"/>
<path d="M1.57055 32.2433C1.57055 32.2433 -10.2641 66.3361 31.04 71.5059L33.802 51.5593C33.5619 51.5713 33.3217 51.5834 33.0755 51.5894C21.9674 51.7515 15.2966 42.7389 17.3861 32.4354C19.3855 22.5402 28.5842 14.5904 38.3894 13.7438C38.6055 13.7258 38.8157 13.7138 39.0258 13.7018L39.188 12.5129C39.188 12.5129 35.5973 11.7263 30.6017 11.7263C20.8746 11.7323 5.81565 14.7045 1.57055 32.2433Z" fill="#D91F27"/>
</svg>
