<?xml version="1.0" encoding="utf-8"?>
<!-- Generator: Adobe Illustrator 25.0.1, SVG Export Plug-In . SVG Version: 6.00 Build 0)  -->
<svg version="1.0" id="Layer_1" xmlns="http://www.w3.org/2000/svg" xmlns:xlink="http://www.w3.org/1999/xlink" x="0px" y="0px"
	 viewBox="0 0 358 260" style="enable-background:new 0 0 358 260;" xml:space="preserve">
<style type="text/css">
	.st0{fill:#781F19;}
	.st1{fill:#D6A64F;}
	.st2{fill:none;stroke:#FFFFFF;stroke-width:0.75;stroke-miterlimit:10;}
	.st3{fill:#FFFFFF;}
	.st4{fill:none;stroke:#1F1917;stroke-width:0.75;stroke-miterlimit:10;}
	.st5{fill:#BDA345;}
	.st6{fill:#D9261C;}
	.st7{fill:none;stroke:#1F1917;stroke-width:0.75;stroke-linejoin:round;}
	.st8{fill:none;stroke:#1F1917;stroke-width:0.75;stroke-linecap:round;stroke-linejoin:round;}
	.st9{fill:none;}
</style>
<g id="layer1">
	<g id="g3010">
		<path id="path38" class="st0" d="M267,130c0,48.6-39.4,88-88,88s-88-39.4-88-88s39.4-88,88-88S267,81.4,267,130L267,130"/>
		<path id="path40" class="st1" d="M246.9,130c0,37.5-30.4,67.9-67.9,67.9s-67.9-30.4-67.9-67.9s30.4-67.9,67.9-67.9l0,0
			C216.5,62.1,246.9,92.5,246.9,130C246.9,130,246.9,130,246.9,130"/>
		<path id="path42" class="st2" d="M246.9,130c0,37.5-30.4,67.9-67.9,67.9s-67.9-30.4-67.9-67.9s30.4-67.9,67.9-67.9l0,0
			C216.5,62.1,246.9,92.5,246.9,130C246.9,130,246.9,130,246.9,130z"/>
		<path id="path44" class="st3" d="M120.2,188.5l7.3-7.5l1.7,1.6l-7.3,7.5L120.2,188.5"/>
		<path id="path46" class="st3" d="M125.3,178.9l-8.1,6.6l-1.7-2.1l1.6-4.1c0.5-1.2,1.1-2.4,1.7-3.6l0,0c-1,1-2.1,2-3.3,2.9
			l-2.4,1.9l-1.4-1.7l8.1-6.6l1.6,1.9l-1.7,4.3c-0.5,1.3-1.1,2.5-1.8,3.7l0,0c1-0.9,2.2-1.9,3.5-3l2.4-2l1.4,1.7"/>
		<path id="path48" class="st3" d="M115.5,168.6c-0.1-0.3-0.2-0.5-0.4-0.7c-1.1-1.9-2.8-2.5-4.9-1.3c-1.5,0.7-2.2,2.4-1.5,4
			c0.1,0.2,0.2,0.4,0.3,0.6c0.2,0.3,0.4,0.6,0.6,0.9L115.5,168.6L115.5,168.6z M109.3,174.8c-0.7-0.8-1.3-1.7-1.8-2.6
			c-0.9-1.2-1.3-2.7-1.2-4.3c0.2-1.5,1.2-2.8,2.6-3.5c1.3-0.9,3-1.1,4.5-0.6c1.6,0.7,2.8,2,3.6,3.5c0.5,0.8,0.9,1.6,1.2,2.4
			L109.3,174.8"/>
		<path id="path50" class="st3" d="M102.2,161.3l9.6-4.1l0.9,2.2l-9.6,4.1L102.2,161.3"/>
		<path id="path52" class="st3" d="M104.9,150.8l-1.9,1.2c-0.6,0.3-1.2,0.7-1.8,1.1l0,0c0.6,0,1.4-0.1,2.1-0.1h2.3L104.9,150.8
			L104.9,150.8z M107.4,152.8l2.8-0.1l0.7,2.3L99.9,155l-0.9-3l9.1-6.1l0.7,2.4l-2.3,1.6L107.4,152.8"/>
		<path id="path54" class="st3" d="M107.7,143.7l-10.4,1.4l-0.3-2.7l3.5-2.7c1.1-0.8,2.2-1.5,3.3-2.1l0,0c-1.3,0.3-2.7,0.5-4.3,0.8
			l-3,0.4l-0.3-2.2l10.3-1.3l0.3,2.5l-3.7,2.7c-1.1,0.8-2.2,1.6-3.4,2.3v0.1c1.4-0.3,2.8-0.5,4.5-0.7l3.1-0.4L107.7,143.7"/>
		<path id="path56" class="st3" d="M96.2,125.3l10.4,0.4l-0.1,2.4l-10.4-0.4L96.2,125.3"/>
		<path id="path58" class="st3" d="M106.8,122.8l-10.3-1.6l0.4-2.7l4.1-1.5c1.2-0.5,2.5-0.8,3.8-1.1l0,0c-1.5-0.1-2.9-0.3-4.3-0.5
			l-3-0.5l0.3-2.1l10.3,1.7l-0.4,2.4l-4.3,1.5c-1.3,0.5-2.6,0.9-3.9,1.2v0.1c1.4,0.2,2.8,0.3,4.5,0.6l3.1,0.5L106.8,122.8"/>
		<path id="path60" class="st3" d="M106.6,110.5c0.6-0.7,1.1-1.4,1.4-2.3c0.3-1,0.1-1.7-0.6-1.9c-0.7-0.2-1.1,0.2-1.9,1.2
			c-1.1,1.5-2.4,2.3-3.8,1.8c-1.7-0.5-2.5-2.4-1.8-4.7c0.3-0.9,0.7-1.7,1.3-2.4l1.7,1.1c-0.5,0.5-0.9,1.2-1.1,1.9
			c-0.3,1,0,1.6,0.5,1.8s1.1-0.3,2-1.4c1.2-1.6,2.4-2.1,3.8-1.6c1.7,0.5,2.7,2.2,1.8,5c-0.3,1-0.8,1.9-1.5,2.6L106.6,110.5"/>
		<path id="path62" class="st3" d="M105,97.1l-1.2,2.6l-1.8-0.8l3.4-7.3l1.8,0.8L106,95l7.7,3.6l-1,2.1L105,97.1"/>
		<path id="path64" class="st3" d="M108.3,86.7l9,5.3l-1.2,2l-9-5.3L108.3,86.7"/>
		<path id="path66" class="st3" d="M113.2,82.8l-1.7,2.3l-1.6-1.2l4.8-6.5l1.6,1.2l-1.7,2.3l6.8,5l-1.5,1.9L113.2,82.8"/>
		<path id="path68" class="st3" d="M118.8,73l4.2,4.2c1.3,1.3,2.4,1.4,3.3,0.6c0.8-0.8,0.7-2-0.6-3.3l-4.3-4.2l1.7-1.7l4.2,4.1
			c2.3,2.3,2.2,4.5,0.3,6.4s-4,1.9-6.3-0.4l-4.1-4.1L118.8,73"/>
		<path id="path70" class="st3" d="M129.4,66.1l-2.3,1.7l-1.2-1.6l6.4-4.8l1.2,1.6l-2.3,1.7l5.1,6.8l-1.9,1.4L129.4,66.1"/>
		<path id="path72" class="st3" d="M143.7,61.6l-3.3,1.9l1.2,2.2l3.7-2.1l1,1.7l-5.8,3.3l-5.2-9.1l5.6-3.2l1,1.7l-3.5,2l1.1,1.9
			l3.3-1.8L143.7,61.6"/>
		<path id="path74" class="st3" d="M156.1,59.4c1.5-0.5,1.9-2.2,1.3-4.2c-0.6-1.8-1.9-3-3.5-2.5s-1.9,2.2-1.3,4.2
			C153.1,58.8,154.6,59.9,156.1,59.4L156.1,59.4z M156.5,61.3c-2.9,1-5.4-0.7-6.3-3.5c-1-3,0.2-5.8,3.1-6.8c2.9-0.9,5.5,0.8,6.3,3.5
			C160.8,57.7,159.5,60.3,156.5,61.3L156.5,61.3"/>
		<path id="path76" class="st3" d="M162.1,48.8l6.3-1.1l0.3,1.9l-4,0.7l0.4,2.4l3.7-0.6l0.3,1.9l-3.7,0.6l0.7,4.1l-2.3,0.4
			L162.1,48.8"/>
		<path id="path78" class="st3" d="M179.1,49.1h-2.8v-2l8,0.1v2h-2.8l-0.1,8.5h-2.4l0.1-8.5"/>
		<path id="path80" class="st3" d="M193.1,54.3l-3.8-0.5l-0.4,2.5l4.2,0.6l-0.3,1.9l-6.6-0.9l1.5-10.3l6.4,0.9l-0.3,1.9l-4-0.6
			l-0.3,2.2l3.8,0.5L193.1,54.3"/>
		<path id="path82" class="st3" d="M202.8,61.1c-0.9,0.1-1.8,0-2.7-0.3c-3.5-1-4.6-3.7-3.8-6.6c1-3.4,4-4.6,7-3.8
			c0.9,0.2,1.7,0.6,2.4,1.2l-1,1.7c-0.5-0.4-1.1-0.7-1.8-0.9c-1.6-0.6-3.4,0.3-4,1.9c-0.1,0.2-0.1,0.3-0.1,0.5
			c-0.6,1.6,0.2,3.4,1.8,4c0.2,0.1,0.3,0.1,0.5,0.1c0.6,0.2,1.3,0.3,2,0.2L202.8,61.1"/>
		<path id="path84" class="st3" d="M211.6,53.7l-1.7,3.7l3.5,1.6l1.7-3.7l2.1,1l-4.3,9.5l-2.1-1l1.8-4l-3.5-1.6l-1.8,4l-2.1-1
			l4.3-9.5L211.6,53.7"/>
		<path id="path86" class="st3" d="M215.6,67.3l5.8-8.7l2.3,1.5l-0.3,4.4c-0.1,1.3-0.3,2.6-0.6,3.9l0,0c0.7-1.3,1.4-2.5,2.3-3.7
			l1.7-2.5l1.8,1.2l-5.8,8.7l-2.1-1.4l0.4-4.6c0.1-1.4,0.3-2.7,0.5-4.1l0,0c-0.7,1.2-1.5,2.4-2.4,3.9l-1.7,2.6L215.6,67.3"/>
		<path id="path88" class="st3" d="M229.6,75.8c1.2,1.1,2.9,0.6,4.2-0.9c1.4-1.5,1.7-3.1,0.6-4.3s-2.9-0.6-4.3,0.8
			S228.4,74.7,229.6,75.8L229.6,75.8L229.6,75.8z M228.3,77.1c-2.3-2.1-2-5.1,0-7.2s5.2-2.6,7.4-0.5s2,5.1,0,7.2
			C233.4,79.1,230.4,79.2,228.3,77.1L228.3,77.1"/>
		<path id="path90" class="st3" d="M241.9,75.8l1.5,1.8l-6.6,5.3l2.6,3.2l-1.6,1.2l-4.1-5.1L241.9,75.8"/>
		<path id="path92" class="st3" d="M242.6,91.9c0.8,1.4,2.6,1.4,4.3,0.3c1.6-1,2.5-2.5,1.7-3.9s-2.7-1.4-4.3-0.4
			S241.8,90.5,242.6,91.9L242.6,91.9z M241,92.8c-1.6-2.6-0.5-5.4,2-7s5.7-1.1,7.3,1.6c1.6,2.6,0.5,5.5-2,7
			C245.3,96.1,242.5,95.4,241,92.8L241,92.8"/>
		<path id="path94" class="st3" d="M248.5,107.2c-0.8-0.9-1.4-1.9-1.8-3c-0.7-1.4-0.8-3-0.3-4.5c0.6-1.3,1.7-2.3,3-2.8
			c3.2-1.3,6,0.3,7.3,3.5c0.4,0.9,0.6,1.9,0.6,2.9l-1.9,0.2c0-0.8-0.1-1.7-0.5-2.4c-0.5-1.7-2.2-2.7-3.9-2.2c-0.2,0-0.3,0.1-0.5,0.2
			c-1.7,0.5-2.6,2.2-2.2,3.9c0,0.2,0.1,0.3,0.2,0.5c0.1,0.4,0.3,0.7,0.6,1l2-0.8l-0.6-1.5l1.7-0.7l1.4,3.6L248.5,107.2"/>
		<path id="path96" class="st3" d="M249.3,112.5l4.2-1l5.3-4.6l0.6,2.6l-2.2,1.6c-0.7,0.5-1.2,0.8-1.8,1.2l0,0
			c0.7,0.1,1.3,0.2,2.1,0.3l2.7,0.5l0.6,2.6l-6.7-2l-4.2,1L249.3,112.5"/>
		<path id="path98" class="st3" d="M255.5,133c1.3-0.1,2.8-0.1,4.3-0.2l0,0c-1.3-0.3-2.8-0.7-4.1-1.1l-4.1-1.2v-1.8l4-1.2
			c1.2-0.4,2.7-0.7,4.1-1l0,0c-1.4,0-3,0-4.3-0.1l-4-0.1v-2.2l10.4,0.5v3.1l-3.5,1.1c-1.2,0.4-2.5,0.7-3.7,1v0.1
			c1.2,0.3,2.6,0.6,3.8,0.9l3.5,1l0.1,3.1l-10.4,0.7v-2.3L255.5,133"/>
		<path id="path100" class="st3" d="M254.6,144l2.3-0.3l2.1-0.2l0,0c-0.6-0.2-1.3-0.5-1.9-0.8l-2.1-1L254.6,144L254.6,144z
			 M253.4,141.1l-2.5-1.2l0.4-2.4l9.8,4.9l-0.5,3l-10.8,1.4l0.4-2.5l2.8-0.3L253.4,141.1"/>
		<path id="path102" class="st3" d="M250,152c-0.1,0.2-0.2,0.5-0.3,0.8c-0.7,2,0,3.8,2.3,4.5c1.5,0.7,3.3,0.1,4-1.4
			c0.1-0.2,0.2-0.4,0.2-0.6c0.1-0.3,0.2-0.7,0.3-1L250,152z M258.8,152.5c-0.2,1.1-0.4,2.1-0.8,3.1c-0.4,1.5-1.2,2.8-2.4,3.7
			c-1.3,0.8-2.9,1-4.3,0.4c-1.5-0.4-2.8-1.5-3.5-3c-0.5-1.7-0.4-3.4,0.3-5c0.3-0.9,0.6-1.7,1-2.5L258.8,152.5"/>
		<path id="path104" class="st3" d="M249.1,164.9l-0.4,0.8c-0.5,1-0.3,1.9,0.5,2.4s1.6,0.1,2.1-0.9c0.2-0.3,0.3-0.7,0.4-1
			L249.1,164.9L249.1,164.9z M254.1,164.9c-0.3,1-0.7,2-1.2,2.9c-0.4,1.1-1.3,2-2.3,2.6c-0.8,0.3-1.7,0.3-2.4-0.1
			c-1-0.6-1.6-1.7-1.4-2.8l0,0c-0.7,0.5-1.6,0.6-2.4,0.3c-1.2-0.3-2.6-0.6-3-0.6l1.1-2.1c0.8,0.1,1.7,0.3,2.5,0.5
			c1.3,0.3,1.8,0.1,2.3-0.8l0.3-0.6l-3.6-1.9l1.1-2.1L254.1,164.9"/>
		<path id="path106" class="st3" d="M240.8,175.9l2.2,0.8c0.6,0.2,1.4,0.5,1.9,0.8l0,0c-0.4-0.5-1-1.1-1.4-1.6l-1.4-1.9L240.8,175.9
			z M240.9,172.7l-1.8-2.2l1.4-2l6.6,8.7l-1.8,2.5l-10.3-3.5l1.5-2.1l2.6,0.9L240.9,172.7"/>
		<path id="path108" class="st3" d="M235.1,179.7c-0.9,0.3-1.6,0.8-2.3,1.4c-0.8,0.8-0.8,1.5-0.3,2s1.1,0.4,2.3-0.2
			c1.6-0.8,3.1-1,4.2,0.1c1.3,1.2,1.2,3.2-0.5,5c-0.6,0.7-1.4,1.2-2.2,1.6l-1-1.7c0.7-0.3,1.3-0.7,1.9-1.2c0.7-0.7,0.7-1.4,0.3-1.8
			s-1.1-0.3-2.4,0.4c-1.8,0.9-3.1,0.8-4.1-0.2c-1.3-1.2-1.4-3.2,0.6-5.3c0.7-0.8,1.6-1.3,2.5-1.7L235.1,179.7"/>
		<path id="path110" class="st3" d="M228.2,192.2c0,0.9-0.7,1.6-1.6,1.6c-0.9,0-1.6-0.7-1.6-1.6c0-0.9,0.7-1.6,1.6-1.6
			C227.5,190.6,228.2,191.3,228.2,192.2L228.2,192.2"/>
		<path id="path112" class="st3" d="M132.9,192.2c0,0.9-0.7,1.5-1.6,1.5c-0.9,0-1.5-0.7-1.5-1.6c0-0.9,0.7-1.5,1.6-1.5c0,0,0,0,0,0
			C132.2,190.6,132.9,191.3,132.9,192.2C132.9,192.2,132.9,192.2,132.9,192.2"/>
		<path id="path114" class="st3" d="M142.1,171.6l24.7,4.4l-2.6,3.1l24.2,2.1l-2.4,2l23.9,1.1l-31.6,3.1l4-3.5l-25.1-2.6l4.2-3.1
			L142.1,171.6"/>
		<path id="path116" class="st3" d="M139.2,193l2.2,1.3c0-0.4,0.1-0.8,0.2-1.2c0.1-0.4,0.2-0.7,0.4-1.1c0.3-0.5,0.8-0.9,1.4-1
			c0.6-0.1,1.3,0,1.8,0.3c0.8,0.6,1.5,1.4,1.8,2.3c0.5,1.2,0.8,2.6,0.9,3.9l-0.5,0.1c-0.1-1-0.3-2-0.8-2.9c-0.4-0.8-1-1.5-1.8-1.9
			c-0.4-0.2-0.9-0.3-1.4-0.1c-0.5,0.2-0.9,0.6-1.2,1.1c-0.2,0.3-0.3,0.5-0.4,0.8l0.9,0.5l0.1,1.3l-1.2-0.7l-4,6.8l-0.8-1.5l3.5-6.1
			l-1.1-0.6L139.2,193"/>
		<path id="path118" class="st3" d="M144.9,198.7c-0.1,0.5-0.3,0.9-0.5,1.3c0.1,0.3,0.3,0.6,0.5,0.8c0.2,0.2,0.4,0.4,0.6,0.5
			c0.2,0.1,0.5,0.2,0.8,0.2c0.3,0,0.6-0.1,0.8-0.2l1.1-2.3l-3.2-1.6C145,197.9,145,198.3,144.9,198.7L144.9,198.7z M145.2,205.4
			l1.2-2.6c-0.1,0-0.3,0-0.4,0c-0.2-0.1-0.4-0.1-0.6-0.2c-0.4-0.2-0.7-0.5-0.9-0.8c-0.3-0.4-0.5-0.8-0.6-1.3c-0.3,0.3-0.6,0.5-1,0.7
			c-0.3,0.1-0.7,0.2-1,0.2c0.3,1.3,0.8,2.6,1.5,3.8l-0.9,0.4c-1.3-3.7-1.7-5.9-1.4-6.7c0.1-0.2,0.2-0.3,0.4-0.4
			c0.2-0.1,0.3-0.1,0.5,0c0.2,0.1,0.3,0.2,0.4,0.4c0.1,0.2,0.1,0.5,0.1,0.7c0.3,0,0.6-0.1,0.8-0.2c0.3-0.2,0.5-0.4,0.6-0.7
			c0.1-0.2,0.2-0.5,0.2-0.7c0-0.2,0-0.4,0-0.7l-2.4-1.2l-0.3-1.3l8.8,4.3l0.3,1.3l-1.2-0.6l-3.5,7.1L145.2,205.4"/>
		<path id="path120" class="st3" d="M149.5,198.5l2.4,0.9c0-0.4,0-0.8,0-1.2c0-0.4,0.1-0.8,0.3-1.1c0.2-0.5,0.6-0.9,1.2-1.1
			c0.6-0.2,1.2-0.2,1.8,0c0.9,0.4,1.6,1.1,2.1,1.9c0.7,1.1,1.2,2.4,1.5,3.7l-0.4,0.1c-0.2-1-0.7-1.9-1.3-2.8c-0.5-0.7-1.2-1.3-2-1.6
			c-0.4-0.2-0.9-0.1-1.4,0.1c-0.5,0.3-0.8,0.7-1,1.2c-0.1,0.3-0.2,0.6-0.2,0.9l0.9,0.4l0.4,1.3l-1.3-0.5l-2.9,7.4l-1-1.4l2.6-6.5
			l-1.2-0.5L149.5,198.5"/>
		<path id="path122" class="st3" d="M154.2,209.1c0.1,0.2,0.2,0.3,0.4,0.3c0.4,0.1,0.8,0.1,1.2-0.1c0.5-0.2,0.9-0.4,1.2-0.8
			c-0.6-0.1-1.1-0.4-1.6-0.8c-0.3,0-0.6,0.1-0.9,0.2c-0.2,0.1-0.4,0.3-0.5,0.6C154.1,208.8,154.1,209,154.2,209.1L154.2,209.1z
			 M161.7,202.6l0.5,1.3l-1.6-0.5l-0.7,2.4l-3.4-1c-0.3-0.1-0.5,0-0.8,0.1c-0.2,0.1-0.4,0.4-0.5,0.6c-0.1,0.3,0,0.7,0.2,0.9
			c0.2,0.3,0.5,0.5,0.9,0.6l1,0.2c0-0.1,0-0.2,0-0.2c0-0.1,0-0.1,0-0.2c0.1-0.2,0.3-0.4,0.5-0.5c0.3-0.1,0.6-0.1,0.8,0
			c0.3,0.1,0.6,0.3,0.7,0.6c0.1,0.3,0.2,0.6,0.1,0.9c-0.1,0.2-0.2,0.4-0.4,0.5c-0.2,0.1-0.5,0.2-0.8,0.2l1.4,2.7l-0.8,0.3l-0.7-2
			c-0.4,0.3-0.9,0.6-1.4,0.7c-0.5,0.1-1,0.1-1.4,0c-0.6-0.2-1.1-0.5-1.5-1c-0.5-0.5-0.6-1-0.5-1.3c0-0.1,0.1-0.2,0.1-0.3
			c0.1-0.1,0.1-0.2,0.2-0.3c-0.5-0.2-1-0.5-1.3-1c-0.3-0.4-0.4-0.9-0.2-1.4c0.1-0.2,0.2-0.4,0.4-0.5c0.2-0.2,0.5-0.4,0.7-0.6
			l0.9,1.4c-0.2,0.1-0.4,0.2-0.5,0.3c-0.1,0.1-0.2,0.2-0.2,0.3c0,0.2,0,0.4,0.1,0.5c0.1,0.2,0.3,0.3,0.6,0.4l0.8-0.3
			c-0.2-0.3-0.3-0.6-0.4-1c-0.1-0.4,0-0.7,0.1-1.1c0.1-0.4,0.5-0.7,0.9-0.9c0.5-0.2,1-0.2,1.5,0l2,0.6l0.4-1.3l-6.5-2l-0.5-1.3
			L161.7,202.6"/>
		<path id="path124" class="st3" d="M162.4,204.5c0.2,0.3,0.5,0.5,0.9,0.6l0.3-1.5c0-0.1,0-0.3,0-0.4c-0.1-0.1-0.1-0.2-0.2-0.2
			c-0.3-0.1-0.5,0-0.7,0.2c-0.2,0.1-0.4,0.4-0.4,0.6C162.1,204,162.2,204.3,162.4,204.5L162.4,204.5z M165.3,203.3l4.3,0.8l0.6,1.2
			l-1.3-0.2l-1.4,7.8l-1.3-1.1l0.4-2.3l-2.6-0.5l-0.2,0.9c0,0.2-0.1,0.4-0.2,0.5c-0.1,0.1-0.3,0.2-0.4,0.1c-0.4-0.1-0.8-0.4-1.3-1.1
			c-0.4-0.5-0.5-1.1-0.5-1.7c0-0.1,0.1-0.2,0.2-0.3c0.1-0.1,0.3-0.1,0.5-0.1l0.7,0.1l0.3-1.7c-0.6-0.3-1.2-0.7-1.5-1.3
			c-0.3-0.5-0.5-1.1-0.4-1.6c0.1-0.3,0.3-0.6,0.6-0.8c0.3-0.2,0.7-0.3,1.1-0.2c0.6,0.2,1.1,0.6,1.4,1.1c0.4,0.5,0.6,1.2,0.5,1.9
			l-0.5,2.8l2.6,0.5l0.6-3.4l-1.7-0.3L165.3,203.3"/>
		<path id="path126" class="st3" d="M167.4,199.7c0.4-0.3,0.8-0.4,1.3-0.3c0.5,0.1,0.9,0.2,1.3,0.6c0.4,0.3,0.6,0.7,0.8,1.2
			l-0.3,0.2c-0.1-0.2-0.3-0.4-0.5-0.5c-0.2-0.1-0.4-0.2-0.6-0.2c-0.4-0.1-0.8,0.1-1.1,0.3c-0.3,0.2-0.5,0.6-0.6,1
			c0,0.3,0,0.5,0.1,0.8c0.1,0.3,0.3,0.6,0.5,0.9l-0.4,0.2c-0.4-0.4-0.7-0.9-0.9-1.4c-0.2-0.5-0.2-1-0.2-1.5
			C166.9,200.3,167.1,199.9,167.4,199.7"/>
		<path id="path128" class="st3" d="M170.9,210c0.2,0.2,0.5,0.3,0.8,0.4c0.5,0,1,0,1.4-0.2c0.5-0.2,1.1-0.5,1.5-0.8
			c-0.3-0.4-0.6-0.7-0.9-0.9c-0.3-0.2-0.6-0.3-1-0.4c-0.5-0.1-1,0.1-1.4,0.3c-0.4,0.2-0.6,0.6-0.6,1
			C170.6,209.6,170.7,209.9,170.9,210L170.9,210z M176.9,204.6l0.7,1.1l-1.3-0.1l-0.6,7.9l-1.4-1l0.1-1.8c-0.3,0.2-0.7,0.4-1.1,0.6
			c-0.4,0.1-0.7,0.2-1.1,0.2c-0.8-0.1-1.5-0.5-2-1.1c-0.6-0.5-0.9-1.2-0.9-1.9c0-0.5,0.3-1,0.8-1.3c0.5-0.3,1.1-0.5,1.6-0.4
			c0.6,0,1.1,0.2,1.6,0.6c0.5,0.4,0.9,0.8,1.2,1.4l0.2-3.1l-5.8-0.4l-0.7-1.1L176.9,204.6"/>
		<path id="path130" class="st3" d="M176.1,204.5h2.5c-0.2-0.4-0.3-0.7-0.4-1.1c-0.1-0.4-0.2-0.8-0.1-1.1c0-0.6,0.3-1.1,0.7-1.5
			c0.5-0.4,1.1-0.6,1.7-0.6c1,0.1,1.9,0.5,2.7,1.1c1,0.8,1.9,1.8,2.7,2.9l-0.4,0.3c-0.6-0.9-1.3-1.6-2.2-2.1
			c-0.7-0.5-1.6-0.8-2.5-0.8c-0.5,0-0.9,0.2-1.2,0.6c-0.3,0.4-0.5,1-0.5,1.5c0,0.3,0,0.6,0.1,0.9h1l0.8,1.1h-1.4l-0.1,7.9l-1.5-0.9
			l0.1-7h-1.3L176.1,204.5"/>
		<path id="path132" class="st3" d="M187.5,204.2l0.9,1l-1.3,0.1l0.5,7.9l-1.5-0.8l-0.3-4l-2.8,0.2c-0.3,0-0.5,0.2-0.6,0.4
			c-0.2,0.2-0.2,0.5-0.2,0.8c0.1,0.5,0.2,1.1,0.6,1.5c0.4,0.6,0.9,1,1.4,1.4l-0.5,0.5c-0.8-0.7-1.5-1.4-2.1-2.2
			c-0.4-0.5-0.7-1.2-0.8-1.8c0-0.5,0.1-1,0.4-1.4c0.3-0.4,0.7-0.6,1.1-0.6l3.4-0.2l-0.1-1.6l-5.7,0.4l-0.9-1L187.5,204.2"/>
		<path id="path134" class="st3" d="M193.1,208.8c0.2,0.1,0.4,0.2,0.7,0.1c0.4-0.1,0.7-0.3,1-0.5c0.3-0.3,0.6-0.7,0.9-1.1
			c-0.2-0.2-0.4-0.4-0.7-0.5c-0.2-0.1-0.5-0.1-0.8-0.1c-0.4,0.1-0.8,0.3-1.1,0.6c-0.3,0.2-0.4,0.6-0.3,0.9
			C192.7,208.4,192.9,208.6,193.1,208.8L193.1,208.8z M199.6,201.9l1,0.9l-4.2,0.9l0.5,2.4c0.1-0.2,0.3-0.4,0.5-0.6
			c0.2-0.2,0.4-0.3,0.7-0.3c0.7,0,1.3,0.2,1.7,0.8c0.6,0.5,1,1.2,1.2,2c0.1,0.4,0.1,0.7,0,1.1c-0.1,0.4-0.2,0.8-0.4,1.2l-1.4-0.8
			c0.3-0.4,0.5-0.8,0.6-1.2c0.1-0.3,0.1-0.7,0.1-1c0-0.3-0.2-0.5-0.4-0.7c-0.2-0.2-0.5-0.2-0.8-0.2c-0.3,0.1-0.6,0.2-0.8,0.4
			c-0.3,0.3-0.5,0.6-0.7,1l0.8,3.8l-1.6-0.6l-0.3-2.1c-0.2,0.2-0.4,0.4-0.6,0.6c-0.2,0.2-0.5,0.3-0.8,0.3c-0.6,0.1-1.3-0.1-1.8-0.6
			c-0.6-0.4-1-1-1.2-1.6c-0.1-0.4,0-0.8,0.3-1.2c0.3-0.4,0.7-0.6,1.2-0.7c0.4-0.1,0.8,0,1.2,0.1c0.4,0.2,0.8,0.4,1.2,0.8L195,204
			l-4.4,0.9l-1-0.9L199.6,201.9"/>
		<path id="path136" class="st3" d="M199.1,211.1L199.1,211.1L199.1,211.1L199.1,211.1"/>
		<path id="path138" class="st3" d="M203.5,205.2l2.6-0.9l-1.1-3.2l-2.6,0.9L203.5,205.2L203.5,205.2z M206.5,199.4l1.1,0.8
			l-1.3,0.4l2.6,7.5l-1.6-0.4l-0.7-2l-2.6,0.9l0.3,0.9c0.1,0.2,0.1,0.4,0,0.5c0,0.1-0.1,0.3-0.3,0.3c-0.6,0.1-1.2,0-1.7-0.4
			c-0.6-0.2-1-0.7-1.3-1.3c0-0.1,0-0.3,0.1-0.4c0.1-0.1,0.2-0.2,0.4-0.3l0.8-0.3l-1.1-3.3l-1.8,0.6l-1.1-0.8L206.5,199.4"/>
		<path id="path140" class="st3" d="M202.5,196.6c0.2-0.4,0.5-0.7,0.9-0.9c0.9-0.4,1.9-0.2,2.6,0.5l-0.1,0.4
			c-0.2-0.1-0.4-0.2-0.7-0.2c-0.2,0-0.4,0-0.6,0.1c-0.4,0.1-0.7,0.5-0.8,0.8c-0.2,0.4-0.2,0.8,0,1.2c0.1,0.2,0.3,0.4,0.5,0.6
			c0.3,0.2,0.5,0.4,0.9,0.5l-0.2,0.4c-0.5-0.2-1-0.5-1.5-0.8c-0.4-0.3-0.7-0.8-0.9-1.2C202.3,197.5,202.3,197,202.5,196.6"/>
		<path id="path142" class="st3" d="M214.5,195.7l1.2,0.6l-1.2,0.6l3.4,7.2l-1.7-0.2l-1.6-3.4l-2.3,1.1c0.5,0.1,0.9,0.3,1.3,0.6
			c0.4,0.3,0.6,0.6,0.8,1c0.2,0.4,0.2,0.9,0,1.2c-0.2,0.4-0.5,0.8-0.9,0.9c-0.9,0.3-1.9,0.2-2.6-0.3c-1.2-0.6-2.2-1.4-3-2.4l0.4-0.4
			c0.6,0.7,1.3,1.3,2.2,1.7c0.6,0.3,1.3,0.4,1.9,0.2c0.2-0.1,0.4-0.3,0.4-0.5c0.1-0.2,0.1-0.5-0.1-0.8c-0.2-0.4-0.6-0.8-1.1-1
			c-0.6-0.3-1.3-0.5-2-0.6l4.2-2l-0.8-1.6l-6.7,3.1l-1.2-0.6L214.5,195.7"/>
		<path id="path144" class="st3" d="M217.1,194.1l1.2,0.5l-1.2,0.7l4,6.9l-1.7-0.1l-3.5-6.1l-1.1,0.6l-1.2-0.5L217.1,194.1"/>
		<path id="path146" class="st3" d="M130.8,140.6c0,2.3,5.3,3.4,6.7,3.8c6,1.4,12.1,2.3,18.2,2.7c6.1,0.3,12.1-0.4,18-1.9
			c-3.3-4.1-6.1-8.6-8.5-13.3C145,133.1,130.8,137.2,130.8,140.6z M192.8,131.8c-2.3,4.7-5.2,9.2-8.5,13.3c5.9,1.6,11.9,2.2,18,2
			c6.1-0.3,12.2-1.2,18.2-2.7c1.4-0.4,6.7-1.5,6.7-3.8C227.3,137.2,213,133.1,192.8,131.8"/>
		<path id="path148" class="st4" d="M130.8,140.6c0,2.3,5.3,3.4,6.7,3.8c6,1.4,12.1,2.3,18.2,2.7c6.1,0.3,12.1-0.4,18-1.9
			c-3.3-4.1-6.1-8.6-8.5-13.3C145,133.1,130.8,137.2,130.8,140.6z M192.8,131.8c-2.3,4.7-5.2,9.2-8.5,13.3c5.9,1.6,11.9,2.2,18,2
			c6.1-0.3,12.2-1.2,18.2-2.7c1.4-0.4,6.7-1.5,6.7-3.8C227.2,137.1,213,133.1,192.8,131.8z"/>
		<path id="path150" class="st3" d="M173.7,145.1c-3.3-4.1-6.1-8.6-8.4-13.3c-0.2-0.4-0.3-0.7-0.5-1.1c-1.1-2.5-1.9-5.2-2.5-7.9
			c-2.3-11.7,1.4-23.6,7.9-33.3c3.8-5.7,7.8-11.5,8.8-18.4h0.2c1,6.9,5.1,12.7,8.8,18.4c6.5,9.7,10.2,21.6,7.9,33.3
			c-0.6,2.7-1.4,5.4-2.5,7.9c-0.2,0.4-0.3,0.7-0.5,1.1c-2.3,4.7-5.2,9.2-8.5,13.3c-1.8-0.5-3.5-1-5.3-1.7c-1.7,0.7-3.5,1.3-5.3,1.7
			C173.8,145.1,173.7,145.1,173.7,145.1"/>
		<path id="path152" class="st4" d="M173.7,145.1c-3.3-4.1-6.1-8.6-8.4-13.3c-0.2-0.4-0.3-0.7-0.5-1.1c-1.1-2.5-1.9-5.2-2.5-7.9
			c-2.3-11.7,1.4-23.6,7.9-33.3c3.8-5.7,7.8-11.5,8.8-18.4h0.2c1,6.9,5.1,12.7,8.8,18.4c6.5,9.7,10.2,21.6,7.9,33.3
			c-0.6,2.7-1.4,5.4-2.5,7.9c-0.2,0.4-0.3,0.7-0.5,1.1c-2.3,4.7-5.2,9.2-8.5,13.3c-1.8-0.5-3.5-1-5.3-1.7c-1.7,0.7-3.5,1.3-5.3,1.7
			C173.8,145.1,173.7,145.1,173.7,145.1L173.7,145.1z"/>
		<path id="path154" class="st0" d="M173.6,145.1c-5.9,1.6-11.9,2.2-18,1.9c-6.1-0.3-12.2-1.2-18.2-2.7c-1.2-0.3-5.7-1.3-6.6-3.2
			l0,0c4.6,16.9,24.4,29.6,48.1,29.6s43.5-12.7,48.1-29.6H227c-0.9,1.8-5.3,2.8-6.5,3.1c-6,1.4-12.1,2.3-18.2,2.6
			c-6.1,0.2-12.1-0.4-18-2c-1.8-0.5-3.5-1-5.3-1.7c-1.7,0.7-3.5,1.3-5.3,1.7c-0.1,0-0.1,0-0.2,0l0,0L173.6,145.1z"/>
		<path id="path156" class="st4" d="M173.6,145.1c-5.9,1.6-11.9,2.2-18,1.9c-6.1-0.3-12.2-1.2-18.2-2.7c-1.2-0.3-5.7-1.3-6.6-3.2
			l0,0c4.6,16.9,24.4,29.6,48.1,29.6s43.5-12.7,48.1-29.6H227c-0.9,1.8-5.3,2.8-6.5,3.1c-6,1.4-12.1,2.3-18.2,2.6
			c-6.1,0.2-12.1-0.4-18-2c-1.8-0.5-3.5-1-5.3-1.7c-1.7,0.7-3.5,1.3-5.3,1.7c-0.1,0-0.1,0-0.2,0"/>
		<path id="path158" class="st5" d="M179.9,131c-0.4,0.3-0.6,0.7-0.7,1.2h-0.1c-0.1-0.5-0.4-0.9-0.8-1.2v12.6h0.5l0.3-0.1l0.3,0.1
			h0.5L179.9,131"/>
		<path id="path160" class="st4" d="M179.9,131c-0.4,0.3-0.6,0.7-0.7,1.2h-0.1c-0.1-0.5-0.4-0.9-0.8-1.2v12.6h0.5l0.3-0.1l0.3,0.1
			h0.5L179.9,131z"/>
		<path id="path162" class="st6" d="M179.3,121.9H179c-1.8,0-3.2,1.3-3.6,3c-0.5,2.3,0.5,3.7,2.1,5.2c0.4,0.4,1.6,1.3,1.6,2h0.1
			c0-0.7,1.2-1.6,1.6-2c1.5-1.5,2.6-2.9,2.1-5.2C182.6,123.2,181.1,122,179.3,121.9L179.3,121.9L179.3,121.9z"/>
		<path id="path164" class="st7" d="M179.3,121.9H179c-1.8,0-3.2,1.3-3.6,3c-0.5,2.3,0.5,3.7,2.1,5.2c0.4,0.4,1.6,1.3,1.6,2h0.1
			c0-0.7,1.2-1.6,1.6-2c1.5-1.5,2.6-2.9,2.1-5.2C182.6,123.2,181.1,122,179.3,121.9H179"/>
		<path id="path166" class="st6" d="M175.4,124.9c0.2-1.1,1-2.1,2-2.6l0.1-0.2c0,0-4.3-3.5-9.7,0.7c0.3-0.1,2.4,1.7,2.6,1.9
			c1.3,1,3.1,1.4,4.7,1.1l0.1-0.2C175.3,125.4,175.3,125.1,175.4,124.9"/>
		<path id="path168" class="st7" d="M175.4,124.9c0.2-1.1,1-2.1,2-2.6l0.1-0.2c0,0-4.3-3.5-9.7,0.7c0.3-0.1,2.4,1.7,2.6,1.9
			c1.3,1,3.1,1.4,4.7,1.1l0.1-0.2C175.3,125.4,175.3,125.1,175.4,124.9L175.4,124.9z"/>
		<path id="path170" class="st6" d="M180.5,122.1L180.5,122.1c1.3,0.6,2.1,1.6,2.4,2.9c0.1,0.3,0.1,0.6,0.1,0.9
			c1.6,0.3,3.2-0.2,4.5-1.1c0.3-0.2,2.4-2,2.6-1.9C184.8,118.6,180.5,122.1,180.5,122.1"/>
		<path id="path172" class="st7" d="M180.5,122.1L180.5,122.1c1.3,0.6,2.1,1.6,2.4,2.9c0.1,0.3,0.1,0.6,0.1,0.9
			c1.6,0.3,3.2-0.2,4.5-1.1c0.3-0.2,2.4-2,2.6-1.9C184.8,118.6,180.5,122.1,180.5,122.1z"/>
		<path id="path174" class="st6" d="M178.9,97.3c0,0-11.1,16.9-1.3,24.4h2.7C190,114.3,178.9,97.3,178.9,97.3z"/>
		<path id="path176" class="st8" d="M178.9,97.3c0,0-11.1,16.9-1.3,24.4h2.7C190,114.3,178.9,97.3,178.9,97.3"/>
		<path id="path178" class="st6" d="M176.5,101.8l-4.7-4.1c0.4,0.4,0.2,2.8,0.2,3.3c0,1.3-0.1,2.6-0.2,3.9c-0.2,1.7-0.5,3.4-0.8,5.1
			c-0.5,2.7,0,5.4,1.4,7.8c1.2,1.8,3,3.2,5,4C171,116.6,173.9,107.3,176.5,101.8"/>
		<path id="path180" class="st7" d="M176.5,101.8l-4.7-4.1c0.4,0.4,0.2,2.8,0.2,3.3c0,1.3-0.1,2.6-0.2,3.9c-0.2,1.7-0.5,3.4-0.8,5.1
			c-0.5,2.7,0,5.4,1.4,7.8c1.2,1.8,3,3.2,5,4C171,116.6,173.9,107.3,176.5,101.8L176.5,101.8z"/>
		<path id="path182" class="st6" d="M186.8,109.9c-0.3-1.7-0.6-3.4-0.8-5.1c-0.1-1.3-0.2-2.6-0.2-3.9c0-0.5-0.2-2.9,0.2-3.3
			l-4.7,4.1c2.6,5.5,5.5,14.8-1,19.9c2-0.8,3.8-2.2,5.1-4C186.8,115.4,187.3,112.6,186.8,109.9"/>
		<path id="path184" class="st7" d="M186.8,109.9c-0.3-1.7-0.6-3.4-0.8-5.1c-0.1-1.3-0.2-2.6-0.2-3.9c0-0.5-0.2-2.9,0.2-3.3
			l-4.7,4.1c2.6,5.5,5.5,14.8-1,19.9c2-0.8,3.8-2.2,5.1-4C186.8,115.4,187.3,112.6,186.8,109.9z"/>
		<path id="path186" class="st6" d="M181,121.4l0.2,0.2c1.9-1,4.1-1.2,6.1-0.4h0.2c0,0,1-2.6,2.6-2.6c-1.6-0.7-3.4-0.9-5.1-0.4
			C184,119.6,182.6,120.7,181,121.4"/>
		<path id="path188" class="st7" d="M181,121.4l0.2,0.2c1.9-1,4.1-1.2,6.1-0.4h0.2c0,0,1-2.6,2.6-2.6c-1.6-0.7-3.4-0.9-5.1-0.4
			C184,119.6,182.6,120.7,181,121.4L181,121.4z"/>
		<path id="path190" class="st6" d="M176.6,121.6l0.2-0.1l-0.1-0.2c-1.5-0.8-2.9-1.8-3.9-3.2l0,0c-1.7-0.5-3.5-0.3-5.1,0.4
			c1.6,0,2.6,2.6,2.6,2.6l0.2,0.1C172.5,120.5,174.8,120.6,176.6,121.6"/>
		<path id="path192" class="st7" d="M176.6,121.6l0.2-0.1l-0.1-0.2c-1.5-0.8-2.9-1.8-3.9-3.2l0,0c-1.7-0.5-3.5-0.3-5.1,0.4
			c1.6,0,2.6,2.6,2.6,2.6l0.2,0.1C172.5,120.5,174.8,120.6,176.6,121.6L176.6,121.6z"/>
		<path id="path194" class="st6" d="M176.5,101.8c0.5-1,1-1.9,1.4-2.7l-1.9-2.7l-1.5,3.3v0.1L176.5,101.8
			C176.5,101.8,176.5,101.8,176.5,101.8"/>
		<path id="path196" class="st4" d="M176.5,101.8c0.5-1,1-1.9,1.4-2.7l-1.9-2.7l-1.5,3.3v0.1L176.5,101.8
			C176.5,101.8,176.5,101.8,176.5,101.8L176.5,101.8z"/>
		<path id="path198" class="st6" d="M181.3,101.8l2.3-2l-1.5-3.3l-1.9,2.7v0.3C180.5,100.2,181,101,181.3,101.8
			C181.4,101.9,181.4,101.8,181.3,101.8"/>
		<path id="path200" class="st4" d="M181.3,101.8l2.3-2l-1.5-3.3l-1.9,2.7v0.3C180.5,100.2,181,101,181.3,101.8
			C181.4,101.9,181.4,101.8,181.3,101.8L181.3,101.8z"/>
	</g>
</g>
<rect x="79" y="30" class="st9" width="200" height="200"/>
</svg>
