<svg width="179" height="51" viewBox="0 0 179 51" fill="none" xmlns="http://www.w3.org/2000/svg">
<path d="M14.3381 0.661133C19.7376 0.661133 25.1371 0.661133 30.582 0.661133C27.0428 7.10422 23.4583 13.5927 19.8738 20.0358C19.42 20.8525 19.0117 21.6692 18.6487 22.5313C17.4689 25.3899 17.6051 28.7476 18.8302 31.5607C19.6015 33.3303 20.872 34.8277 22.3693 36.0528C19.3746 40.9985 16.4253 45.9443 13.476 50.8446C8.98403 42.7227 4.44664 34.6462 0 26.5242C4.76426 17.9032 9.52852 9.28217 14.3381 0.661133Z" fill="#454A7B"/>
<path d="M33.4404 0.661133C36.662 0.661133 39.8382 0.661133 43.0597 0.661133C47.8693 9.28217 52.6336 17.9032 57.3979 26.5242C52.9058 34.6462 48.4138 42.7681 43.9218 50.8446C40.9271 45.8989 37.9778 40.9531 35.0285 36.0528C38.2047 33.6479 39.8835 29.8365 39.5659 25.889C39.2483 21.6692 36.5259 17.7671 32.533 16.2244C30.0828 15.2715 27.3603 15.3169 24.9102 16.2244C27.7233 11.0064 30.5819 5.83376 33.4404 0.661133Z" fill="#454A7B"/>
<path d="M75.7747 2.88499C73.7783 1.16078 70.829 0.797789 68.3334 1.43302C66.5185 1.93214 64.9758 3.20261 64.0683 4.83606C62.8432 7.01401 62.6163 9.69107 62.8432 12.1413C63.0701 14.3646 63.8868 16.6333 65.6564 18.1306C67.6074 19.8094 70.4206 20.2178 72.8708 19.6279C74.7311 19.1742 76.3192 17.9945 77.2721 16.3157C78.5426 14.1831 78.8148 11.4607 78.5879 9.01046C78.3157 6.74177 77.5443 4.47307 75.7747 2.88499ZM74.0959 15.4536C72.5078 17.4954 69.014 17.5408 67.3352 15.5443C66.2462 14.2738 65.9286 12.595 65.8379 10.9615C65.7925 9.37345 65.974 7.5585 66.7907 6.10653C67.3806 5.06293 68.3334 4.29158 69.4678 4.01933C71.0105 3.70172 72.6439 3.97396 73.7783 5.06293C75.0941 6.37878 75.4571 8.28448 75.5025 10.0541C75.5933 11.9598 75.2756 14.0016 74.0959 15.4536Z" fill="#454A7B"/>
<path d="M94.9678 2.25005C92.3815 0.571212 88.7062 0.75271 86.4829 3.0214C86.4829 2.52229 86.4829 2.02318 86.4829 1.52406C85.4847 1.52406 84.4411 1.52406 83.4429 1.52406C83.4429 9.82749 83.4429 18.1763 83.4429 26.4797C84.4411 26.026 85.4393 25.5268 86.4376 25.1185C86.5283 22.6683 86.4375 20.2181 86.4829 17.7679C88.7516 20.4903 93.1075 20.445 95.6484 18.1309C97.2819 16.6789 98.0986 14.501 98.3709 12.3684C98.6431 10.2359 98.507 7.96716 97.781 5.92533C97.2365 4.51874 96.3291 3.15752 94.9678 2.25005ZM95.3308 11.5971C95.2401 13.049 94.8317 14.6825 93.8335 15.7715C92.563 17.1781 90.3397 17.4049 88.7062 16.5428C87.7988 16.0891 87.1635 15.4085 86.5283 14.6825C86.5283 12.0508 86.5283 9.37375 86.5283 6.74206C86.4829 6.19757 86.8913 5.83459 87.2089 5.47159C88.3886 4.15575 90.3397 3.70201 92.0185 4.15575C93.1529 4.51874 94.0604 5.38085 94.5595 6.42444C95.3308 8.01253 95.4216 9.82749 95.3308 11.5971Z" fill="#454A7B"/>
<path d="M106.72 1.84196C104.451 2.88556 103.09 4.97275 102.545 7.3322C101.956 9.87313 102.092 12.7771 103.135 15.1819C103.907 16.9515 105.268 18.4942 107.083 19.2202C110.077 20.4452 113.662 19.7646 115.976 17.5413C115.386 16.8607 114.751 16.1801 114.116 15.4995C112.482 16.9968 110.123 17.6321 108.036 16.5431C106.221 15.5449 105.495 13.6392 105.268 11.6427C109.306 11.6427 113.39 11.6427 117.428 11.6427C117.7 8.82953 117.519 5.74411 115.658 3.47542C113.571 0.979852 109.624 0.571488 106.72 1.84196ZM105.268 9.10178C105.404 7.46832 105.812 5.92561 107.128 4.83663C108.807 3.52079 111.711 3.47541 113.208 5.15425C114.206 6.2886 114.433 7.64981 114.479 9.10178C111.393 9.10178 108.353 9.10178 105.268 9.10178Z" fill="#454A7B"/>
<path d="M136.213 9.01058C136.168 6.96876 135.895 4.56394 134.489 2.97586C133.037 1.29702 130.496 0.934032 128.409 1.29702C127.047 1.52389 126.004 2.34062 125.096 3.38422C125.096 2.79436 125.096 2.2045 125.096 1.61464C124.098 1.61464 123.054 1.61464 122.056 1.61464C122.056 7.60399 122.011 13.548 122.102 19.5373C123.1 19.5373 124.143 19.5373 125.142 19.5373C125.142 15.862 125.142 12.1868 125.142 8.51147C125.187 7.19563 125.414 5.78904 126.503 4.88156C128 3.70184 130.813 3.65646 132.084 5.1538C132.991 6.1974 133.128 7.51324 133.128 8.82909C133.128 12.4136 133.128 15.9982 133.128 19.5373C134.126 19.5373 135.169 19.5373 136.168 19.5373C136.213 15.9982 136.213 12.5044 136.213 9.01058Z" fill="#454A7B"/>
<path d="M143.926 24.5277C144.697 24.2101 145.559 24.4823 146.104 25.0722C146.739 25.8435 146.694 26.9779 145.968 27.7039C145.151 28.4752 143.79 28.4299 143.109 27.477C142.338 26.4788 142.746 24.9814 143.926 24.5277Z" fill="#676767"/>
<path d="M178.41 33.7383C177.729 34.3281 177.004 34.918 176.323 35.5078C174.78 33.9198 172.285 33.2845 170.288 34.2827C169.108 34.9634 169.108 36.5061 170.152 37.2774C172.194 38.7748 174.962 39.0924 177.004 40.6805C178.183 41.5426 178.818 42.7677 179 44.2196V45.2179C178.818 46.8513 177.956 48.2579 176.459 48.9839C173.056 50.6173 168.564 49.7552 166.114 46.8059C166.84 46.1707 167.566 45.5355 168.337 44.9456C170.016 46.8059 172.557 47.668 174.916 46.5791C176.005 46.0346 176.323 44.6734 175.733 43.6751C175.052 42.6315 173.737 42.0871 172.602 41.6333C170.787 40.9073 168.655 40.1814 167.339 38.5933C165.751 36.6422 166.114 33.5568 168.246 32.1502C171.332 30.1991 176.005 30.8797 178.41 33.7383Z" fill="#676767"/>
<path d="M97.0093 33.0124C97.0093 30.0631 97.0093 27.0684 97.0093 24.1191C95.9657 24.6183 94.9221 25.072 93.9238 25.6165C93.9692 33.5569 93.9238 41.4973 93.9692 49.3924C94.9674 49.3924 96.011 49.3924 97.0093 49.3924C97.0093 48.8933 97.0093 48.3942 97.0093 47.8951C97.8714 48.6664 98.7335 49.347 99.8678 49.6193C102.227 50.2091 104.995 49.6193 106.674 47.8043C108.353 45.9894 108.897 43.403 108.943 41.0436C109.033 38.3665 108.534 35.4172 106.719 33.3754C104.269 30.5169 99.6409 30.2446 97.0093 33.0124ZM105.54 43.2215C105.177 44.5828 104.496 45.8986 103.18 46.5792C101.048 47.6228 98.2797 46.7153 97.1 44.6735C96.9639 43.9475 97.0546 43.1762 97.0546 42.4502C97.1 40.363 96.9639 38.2758 97.1 36.234C98.3705 34.1921 101.184 33.2847 103.362 34.419C104.814 35.1904 105.403 36.7785 105.676 38.3212C105.903 39.9093 105.903 41.5881 105.54 43.2215Z" fill="#676767"/>
<path d="M136.076 46.7602C135.214 46.3064 135.214 45.2628 135.169 44.4007C135.169 40.9977 135.169 37.5493 135.169 34.1462C136.621 34.1462 138.118 34.1462 139.57 34.1462C139.57 33.2388 139.57 32.3767 139.57 31.4692C138.118 31.4692 136.621 31.4692 135.169 31.4692C135.169 29.019 135.169 26.5234 135.169 24.0732C134.125 24.5724 133.127 25.0261 132.129 25.5252C132.129 27.5217 132.129 29.4727 132.129 31.4692C131.176 31.4692 130.177 31.4692 129.225 31.4692C129.225 32.3767 129.225 33.2388 129.225 34.1462C130.177 34.1462 131.176 34.1462 132.129 34.1462C132.129 37.9576 132.129 41.7237 132.129 45.5351C132.129 47.0324 132.537 48.6659 133.989 49.3919C135.622 50.1632 137.755 49.7549 139.343 49.0289C139.479 48.0307 139.57 47.0324 139.706 46.0796C138.662 46.6694 137.347 47.3047 136.076 46.7602Z" fill="#676767"/>
<path d="M67.7884 31.7415C66.9263 32.2406 66.3365 33.0119 65.792 33.8287C65.792 33.0573 65.792 32.286 65.792 31.5146C64.7938 31.5146 63.7502 31.5146 62.752 31.5146C62.752 37.4586 62.752 43.4479 62.752 49.3919C63.7502 49.3919 64.7938 49.3919 65.792 49.3919C65.8374 45.9435 65.792 42.4497 65.792 39.0013C65.8374 37.3225 66.3365 35.5983 67.8338 34.6454C69.2858 33.7833 70.9192 34.0102 72.3712 34.8269C72.5073 33.874 72.6888 32.8758 72.7796 31.923C71.3276 30.8794 69.3765 30.7886 67.7884 31.7415Z" fill="#676767"/>
<path d="M87.6172 33.0117C85.8022 31.3329 83.3066 30.8338 80.9018 31.1968C78.7692 31.5144 76.9089 32.7849 75.8199 34.6452C74.4134 37.0046 74.1865 40.1354 74.5948 42.7671C75.0032 45.3081 76.1829 47.6675 78.5424 48.938C81.537 50.4807 85.7568 50.0723 88.0255 47.4406C89.8405 45.3988 90.3396 42.5403 90.2488 39.8632C90.2035 37.3223 89.5229 34.7813 87.6172 33.0117ZM85.7568 45.3988C84.1687 47.4406 80.7203 47.486 79.0415 45.5349C77.9525 44.3098 77.5895 42.5856 77.4988 40.9522C77.4534 39.3187 77.6349 37.5038 78.4516 36.0972C79.0415 35.0536 79.9943 34.2368 81.1741 33.9646C82.7168 33.647 84.3502 33.9192 85.4846 35.0989C86.755 36.4148 87.1634 38.3659 87.2088 40.1354C87.2542 41.9504 86.9365 43.9468 85.7568 45.3988Z" fill="#676767"/>
<path d="M124.732 33.0117C122.917 31.3329 120.422 30.8338 118.017 31.1968C115.884 31.5144 114.024 32.7849 112.935 34.6452C111.529 37.0046 111.302 40.1354 111.71 42.7671C112.118 45.3081 113.298 47.6675 115.658 48.938C118.652 50.4807 122.872 50.0723 125.141 47.4406C126.956 45.3988 127.455 42.5403 127.364 39.8632C127.319 37.3223 126.638 34.7813 124.732 33.0117ZM122.872 45.3988C121.284 47.3953 117.836 47.486 116.157 45.5349C115.068 44.3098 114.705 42.5856 114.614 40.9522C114.569 39.2733 114.75 37.3676 115.658 35.9157C116.247 34.9628 117.155 34.2368 118.289 33.9646C119.832 33.6016 121.465 33.9192 122.6 35.0989C123.87 36.4148 124.279 38.3659 124.324 40.1354C124.369 41.9504 124.052 43.9922 122.872 45.3988Z" fill="#676767"/>
<path d="M160.986 44.2653C160.669 44.9459 160.396 45.5812 159.807 46.0349C158.264 47.3054 155.632 47.1692 154.362 45.5812C153.364 44.4014 153.046 42.768 152.955 41.2253C152.864 39.3649 153.001 37.0509 154.09 35.5082C155.269 33.6932 158.173 33.2848 159.761 34.7368C160.26 35.1452 160.442 35.7804 160.85 36.1888C161.803 35.8712 162.711 35.5082 163.618 35.1905C163.164 34.1469 162.62 33.1941 161.712 32.4681C158.627 30.0633 153.364 30.7439 151.276 34.1923C150.006 36.1434 149.688 38.6843 149.734 40.953C149.824 43.2217 150.323 45.6719 151.866 47.4415C153.046 48.8481 154.815 49.6648 156.63 49.7556C158.627 49.8463 160.714 49.3472 162.166 47.8952C162.937 47.1239 163.391 46.171 163.754 45.1728C162.892 44.9006 161.939 44.5829 160.986 44.2653Z" fill="#676767"/>
<path d="M143.109 31.5145C143.154 37.4585 143.064 43.4478 143.154 49.3918C144.152 49.3918 145.151 49.3918 146.194 49.3918C146.194 43.4478 146.194 37.4585 146.194 31.5145C145.151 31.4691 144.107 31.4691 143.109 31.5145Z" fill="#676767"/>
</svg>
