<svg width="151" height="58" viewBox="0 0 151 58" fill="none" xmlns="http://www.w3.org/2000/svg">
<path d="M82.625 6.41513C83.6177 3.85697 86.8632 3.85697 89.4595 3.85697H89.9559V0.267897C89.9559 0.267897 79.8377 0.496986 76.7068 0.496986C73.576 0.496986 64.0306 0.229714 64.0306 0.229714V3.81879H64.5269C67.1233 3.81879 70.3687 3.81879 71.3614 6.37695C72.0869 10.0042 72.3541 13.746 72.2014 17.4496V40.0913C72.3541 43.7949 72.0869 47.4985 71.3614 51.164C70.3687 53.7603 67.1233 53.7603 64.5269 53.7603H64.0306V57.3112C64.0306 57.3112 72.1632 56.9294 76.745 56.9294C81.8995 56.9294 89.9559 57.273 89.9559 57.273V53.7603H89.4595C86.8632 53.7603 83.6177 53.7603 82.625 51.164C81.9377 47.4985 81.6705 43.7949 81.8232 40.0913V17.4878C81.7086 13.746 81.9759 10.0424 82.625 6.41513ZM97.6304 0.344259V15.1205H101.143V14.6624C101.449 5.0406 105.152 4.65878 113.438 4.65878H114.278C116.339 4.65878 118.287 4.65878 119.05 5.38423C119.318 5.68968 119.432 6.0715 119.432 6.45332V45.2458C119.432 51.0112 118.63 53.3785 110.498 53.7221H110.039V57.273C110.039 57.273 119.508 56.9294 125.007 56.9294C129.168 56.9294 138.523 57.273 138.523 57.273V53.7985H138.027C129.932 53.4549 129.092 51.0876 129.092 45.3222V6.52968C129.092 6.18605 129.207 5.80423 129.474 5.57514C130.428 4.6206 132.987 4.69696 135.048 4.69696H136.194C144.288 4.69696 146.885 6.98786 147.381 14.7387V15.1587H150.932V0.344259C150.932 0.344259 130.39 0.496986 124.281 0.496986C118.172 0.496986 97.6304 0.344259 97.6304 0.344259ZM56.2033 53.7603C53.0342 53.684 50.0561 52.1185 48.2234 49.5222L31.3471 30.2023C40.2052 29.0568 45.6652 23.1769 45.6652 14.7387C46.047 9.92784 43.5652 5.30787 39.3271 2.94061C35.1271 0.916984 30.4689 0.000624552 25.7726 0.229714C23.978 0.229714 19.7399 0.420622 15.0054 0.420622C10.2709 0.420622 0 0.229714 0 0.229714V3.81879H0.72545C3.43634 3.81879 6.41451 3.81879 7.21632 6.37695C7.82723 9.85148 8.05632 13.3642 7.94177 16.8387V40.0913C7.97996 43.1458 7.90359 46.2004 7.63632 49.2167C7.55996 49.8658 7.40723 50.5531 7.21632 51.164C6.41451 53.7603 3.13089 53.7603 0.496361 53.7603H0V57.3112C0 57.3112 7.90359 56.9294 13.1727 56.9294C17.7544 56.9294 25.5817 57.273 25.5817 57.3112V53.7603H24.8562C22.2217 53.7603 19.2053 53.7603 18.3654 51.2022C18.1744 50.5531 18.0217 49.904 17.9454 49.2549C17.6781 46.4295 17.5635 43.5658 17.6017 40.7404V31.2332C20.7708 31.2332 21.0381 31.615 22.6417 33.5241C22.9471 33.9059 23.2908 34.2877 23.7108 34.7459L37.7616 52.1567L41.8852 57.3112C41.8852 57.3112 46.467 57.1203 48.6052 57.1203C51.8124 57.1203 56.5088 57.3112 56.5088 57.3112V53.8367L56.2033 53.7603ZM17.6399 27.3387V6.64422C17.6399 5.80423 17.6399 4.69696 18.289 4.35333C20.0453 4.23878 21.8399 4.23878 23.5962 4.35333C30.8126 4.35333 35.0125 8.59149 35.0125 15.9605C35.0125 21.3441 33.5616 24.3987 30.4307 25.9641C27.2998 27.5296 17.6399 27.3387 17.6399 27.3387Z" fill="#F36B21"/>
</svg>
